<?xml version="1.0" encoding="UTF-8" standalone="no"?>
<!-- Created with Inkscape (http://www.inkscape.org/) -->

<svg
   width="450mm"
   height="250mm"
   viewBox="0 0 450 250"
   version="1.1"
   id="svg1"
   inkscape:version="1.4.3 (0d15f75042, 2025-12-25)"
   sodipodi:docname="banner_github.baked.svg"
   xmlns:inkscape="http://www.inkscape.org/namespaces/inkscape"
   xmlns:sodipodi="http://sodipodi.sourceforge.net/DTD/sodipodi-0.dtd"
   xmlns="http://www.w3.org/2000/svg"
   xmlns:svg="http://www.w3.org/2000/svg">
  <sodipodi:namedview
     id="namedview1"
     pagecolor="#ffffff"
     bordercolor="#000000"
     borderopacity="0.25"
     inkscape:showpageshadow="2"
     inkscape:pageopacity="0.0"
     inkscape:pagecheckerboard="0"
     inkscape:deskcolor="#d1d1d1"
     inkscape:document-units="mm"
     inkscape:zoom="0.61544377"
     inkscape:cx="1039.9"
     inkscape:cy="664.56112"
     inkscape:window-width="2560"
     inkscape:window-height="1372"
     inkscape:window-x="0"
     inkscape:window-y="0"
     inkscape:window-maximized="1"
     inkscape:current-layer="layer1" />
  <defs
     id="defs1">
    <inkscape:path-effect
       effect="fillet_chamfer"
       id="path-effect17"
       is_visible="true"
       lpeversion="1"
       nodesatellites_param="F,0,0,1,0,0,0,1 @ F,0,0,1,0,0,0,1 @ F,0,0,1,0,0,0,1 @ F,0,0,1,0,0,0,1 @ F,0,0,1,0,0,0,1 @ F,0,0,1,0,0,0,1 @ F,0,0,1,0,0,0,1 @ F,0,0,1,0,0,0,1"
       radius="0"
       unit="px"
       method="auto"
       mode="F"
       chamfer_steps="1"
       flexible="false"
       use_knot_distance="true"
       apply_no_radius="true"
       apply_with_radius="true"
       only_selected="false"
       hide_knots="false" />
    <inkscape:path-effect
       effect="fillet_chamfer"
       id="path-effect16"
       is_visible="true"
       lpeversion="1"
       nodesatellites_param="F,0,0,1,0,0,0,1 @ F,0,0,1,0,0,0,1 @ F,0,0,1,0,0,0,1 @ F,0,0,1,0,0,0,1"
       radius="0"
       unit="px"
       method="auto"
       mode="F"
       chamfer_steps="1"
       flexible="false"
       use_knot_distance="true"
       apply_no_radius="true"
       apply_with_radius="true"
       only_selected="false"
       hide_knots="false" />
    <inkscape:path-effect
       effect="fillet_chamfer"
       id="path-effect15"
       is_visible="true"
       lpeversion="1"
       nodesatellites_param="F,0,0,1,0,0,0,1 @ F,0,0,1,0,0,0,1 @ F,0,0,1,0,0,0,1 @ F,0,0,1,0,0,0,1"
       radius="0"
       unit="px"
       method="auto"
       mode="F"
       chamfer_steps="1"
       flexible="false"
       use_knot_distance="true"
       apply_no_radius="true"
       apply_with_radius="true"
       only_selected="false"
       hide_knots="false" />
    <inkscape:path-effect
       effect="fillet_chamfer"
       id="path-effect14"
       is_visible="true"
       lpeversion="1"
       nodesatellites_param="F,0,0,1,0,0,0,1 @ F,0,0,1,0,0,0,1 @ F,0,0,1,0,0,0,1 @ F,0,0,1,0,0,0,1"
       radius="0"
       unit="px"
       method="auto"
       mode="F"
       chamfer_steps="1"
       flexible="false"
       use_knot_distance="true"
       apply_no_radius="true"
       apply_with_radius="true"
       only_selected="false"
       hide_knots="false" />
    <rect
       x="-120.23844"
       y="-16.248438"
       width="2141.5442"
       height="1345.3707"
       id="rect3" />
    <rect
       x="404.43661"
       y="492.47726"
       width="1394.9337"
       height="614.50014"
       id="rect1" />
    <filter
       style="color-interpolation-filters:sRGB"
       inkscape:label="Blur"
       id="filter8"
       x="-0.00013063867"
       y="-2.1843841"
       width="1.0002613"
       height="5.3687682">
      <feGaussianBlur
         stdDeviation="0.01 100"
         result="fbSourceGraphic"
         id="feGaussianBlur8" />
      <feColorMatrix
         result="fbSourceGraphicAlpha"
         in="fbSourceGraphic"
         values="0 0 0 -1 0 0 0 0 -1 0 0 0 0 -1 0 0 0 0 1 0"
         id="feColorMatrix8" />
      <feGaussianBlur
         id="feGaussianBlur9"
         stdDeviation="0.01 100"
         result="fbSourceGraphic"
         in="fbSourceGraphic" />
      <feColorMatrix
         result="fbSourceGraphicAlpha"
         in="fbSourceGraphic"
         values="0 0 0 -1 0 0 0 0 -1 0 0 0 0 -1 0 0 0 0 1 0"
         id="feColorMatrix9" />
      <feGaussianBlur
         id="feGaussianBlur10"
         stdDeviation="0.01 100"
         result="fbSourceGraphic"
         in="fbSourceGraphic" />
      <feColorMatrix
         result="fbSourceGraphicAlpha"
         in="fbSourceGraphic"
         values="0 0 0 -1 0 0 0 0 -1 0 0 0 0 -1 0 0 0 0 1 0"
         id="feColorMatrix10" />
      <feGaussianBlur
         id="feGaussianBlur11"
         stdDeviation="0.01 100"
         result="fbSourceGraphic"
         in="fbSourceGraphic" />
      <feColorMatrix
         result="fbSourceGraphicAlpha"
         in="fbSourceGraphic"
         values="0 0 0 -1 0 0 0 0 -1 0 0 0 0 -1 0 0 0 0 1 0"
         id="feColorMatrix11" />
      <feGaussianBlur
         id="feGaussianBlur12"
         stdDeviation="0.01 100"
         result="blur"
         in="fbSourceGraphic" />
    </filter>
    <filter
       style="color-interpolation-filters:sRGB"
       inkscape:label="Blur"
       id="filter14"
       x="-0.11334525"
       y="-0.43300741"
       width="1.2266905"
       height="1.8660148">
      <feGaussianBlur
         stdDeviation="43.3812 99.1143"
         result="blur"
         id="feGaussianBlur14" />
    </filter>
    <inkscape:path-effect
       effect="fillet_chamfer"
       id="path-effect17-2"
       is_visible="true"
       lpeversion="1"
       nodesatellites_param="F,0,0,1,0,0,0,1 @ F,0,0,1,0,0,0,1 @ F,0,0,1,0,0,0,1 @ F,0,0,1,0,0,0,1 @ F,0,0,1,0,0,0,1 @ F,0,0,1,0,0,0,1 @ F,0,0,1,0,0,0,1 @ F,0,0,1,0,0,0,1"
       radius="0"
       unit="px"
       method="auto"
       mode="F"
       chamfer_steps="1"
       flexible="false"
       use_knot_distance="true"
       apply_no_radius="true"
       apply_with_radius="true"
       only_selected="false"
       hide_knots="false" />
    <inkscape:path-effect
       effect="fillet_chamfer"
       id="path-effect17-8"
       is_visible="true"
       lpeversion="1"
       nodesatellites_param="F,0,0,1,0,0,0,1 @ F,0,0,1,0,0,0,1 @ F,0,0,1,0,0,0,1 @ F,0,0,1,0,0,0,1 @ F,0,0,1,0,0,0,1 @ F,0,0,1,0,0,0,1 @ F,0,0,1,0,0,0,1 @ F,0,0,1,0,0,0,1"
       radius="0"
       unit="px"
       method="auto"
       mode="F"
       chamfer_steps="1"
       flexible="false"
       use_knot_distance="true"
       apply_no_radius="true"
       apply_with_radius="true"
       only_selected="false"
       hide_knots="false" />
    <clipPath
       clipPathUnits="userSpaceOnUse"
       id="clipPath17">
      <path
         style="fill:#181825;fill-opacity:1;stroke-width:0.264583"
         id="path17"
         width="450"
         height="250"
         x="0"
         y="0"
         sodipodi:type="rect"
         inkscape:label="rect15"
         rx="35"
         d="m 35,0 h 380 c 19.39,0 35,15.61 35,35 v 180 c 0,19.39 -15.61,35 -35,35 H 35 C 15.61,250 0,234.39 0,215 V 35 C 0,15.61 15.61,0 35,0 Z"
         inkscape:path-effect="#path-effect17-8"
         transform="rotate(30)" />
    </clipPath>
  </defs>
  <g
     inkscape:label="Banner"
     inkscape:groupmode="layer"
     id="layer1">
    <path
       style="fill:#181825;fill-opacity:1;stroke-width:0.264583"
       id="rect15"
       width="450"
       height="250"
       x="0"
       y="0"
       sodipodi:type="rect"
       inkscape:label="rect15"
       rx="35"
       d="m 35,0 h 380 c 19.39,0 35,15.61 35,35 v 180 c 0,19.39 -15.61,35 -35,35 H 35 C 15.61,250 0,234.39 0,215 V 35 C 0,15.61 15.61,0 35,0 Z"
       inkscape:path-effect="#path-effect17" />
    <g
       id="text4"
       clip-path="url(#clipPath17)"
       style="font-stretch:expanded;font-size:123.472px;font-family:'DINish Expanded';-inkscape-font-specification:'DINish Expanded, Expanded';fill:#cba6f7;stroke-width:0.264583;filter:url(#filter14)"
       transform="rotate(-30)"
       aria-label="workspaces&#10;preservation&#10;userbot&#10;tool asssistance">
      <path
         d="m -266.25991,258.9827 -21.82464,-63.18294 h 11.21376 l 16.15747,49.79876 17.36325,-49.79876 h 8.56105 l 17.48383,49.79876 16.03689,-49.79876 h 11.21376 l -21.82464,63.18294 h -10.36972 l -16.88093,-48.11068 -16.88094,48.11068 z m 113.22286,1.0852 q -13.50475,0 -21.34233,-7.59642 -7.717,-7.59642 -7.717,-22.0658 v -6.27006 q 0,-14.46938 7.717,-22.0658 7.83758,-7.59642 21.34233,-7.59642 13.62532,0 21.10117,7.717 7.59642,7.717 7.59642,21.94522 v 6.27006 q 0,14.46938 -7.59642,22.0658 -7.47585,7.59642 -21.10117,7.59642 z m -18.56903,-29.90338 q 0,20.61886 18.44845,20.61886 18.32787,0 18.32787,-20.61886 v -5.78775 q 0,-20.49828 -18.32787,-20.49828 -18.44845,0 -18.44845,20.49828 z m 61.97715,28.81818 v -63.18294 h 10.369717 v 8.8022 q 6.390641,-9.64625 20.136547,-9.64625 2.773297,0 5.064282,0.36174 v 10.00798 q -3.496766,-0.96462 -6.993532,-1.0852 -8.078734,0 -13.143015,4.9437 -4.943704,4.82313 -4.943704,13.38417 v 36.4146 z m 46.663725,0 v -85.24874 h 10.490297 v 54.019 l 31.470891,-31.9532 H -7.8610014 L -32.097205,219.91538 -4.4848139,258.9827 H -16.904361 l -22.427531,-31.83263 -13.143016,13.14302 v 18.68961 z m 92.362863,0.72347 q -12.419547,0 -19.5336563,-5.18486 -7.1141094,-5.30544 -7.1141094,-14.46938 V 239.6902 H 12.757877 v 0.24115 q 0,5.18486 4.220234,8.07874 4.340813,2.89387 12.901859,2.89387 7.837579,0 12.419547,-2.65272 4.581969,-2.65272 4.581969,-7.47584 0,-4.22023 -3.496765,-6.14948 -3.376188,-2.04983 -10.249141,-2.7733 l -9.04336,-1.0852 Q 13.601924,229.44106 8.6582205,225.3414 3.7145173,221.24174 3.7145173,213.64532 q 0,-8.8022 6.8729527,-13.7459 6.993532,-4.94371 18.810188,-4.94371 12.298969,0 19.2925,5.06428 7.114109,5.06428 7.114109,13.62533 v 0.48231 H 45.796283 v -0.36173 q 0,-5.06428 -4.220234,-7.717 -4.220235,-2.65272 -12.057813,-2.65272 -8.078734,0 -11.937234,2.53214 -3.8585,2.53214 -3.8585,6.99353 0,3.8585 2.652718,6.02891 2.773297,2.04983 10.007985,2.7733 l 9.525672,1.20578 q 10.731453,1.20578 15.795734,5.42601 5.18486,4.22024 5.18486,11.81666 0,9.28451 -7.355266,14.46937 -7.355266,5.06429 -20.136547,5.06429 z m 40.273093,19.2925 V 195.79976 H 80.04047 v 8.44047 q 3.135031,-4.46139 8.199312,-6.99353 5.18486,-2.65272 11.937238,-2.65272 11.93723,0 19.17192,7.59642 7.23469,7.59642 7.23469,21.70406 v 6.6318 q 0,14.3488 -7.35527,21.94522 -7.23469,7.59642 -19.05134,7.59642 -13.625331,0 -20.015972,-9.28452 v 28.21529 z m 10.490297,-47.38721 q 0,8.80221 4.943703,13.98706 5.064281,5.18486 13.50475,5.18486 8.319889,0 12.901859,-5.18486 4.58197,-5.30543 4.58197,-15.55457 v -5.5466 q 0,-10.24914 -4.58197,-15.434 -4.58197,-5.18486 -13.143015,-5.18486 -8.440469,0 -13.384172,5.30544 -4.823125,5.18486 -4.823125,14.10764 z m 81.390212,28.09471 q -11.33434,0 -17.48383,-4.94371 -6.0289,-4.9437 -6.0289,-14.10764 0,-8.92278 6.14948,-13.62533 6.14949,-4.70254 18.08672,-4.70254 h 19.65424 v -4.34082 q 0,-14.34879 -16.76036,-14.34879 -7.23469,0 -11.09319,2.77329 -3.73792,2.65272 -3.73792,7.59643 v 0.36173 h -10.24914 v -0.36173 q 0,-8.92279 6.63179,-13.98707 6.75238,-5.06428 18.32788,-5.06428 13.26359,0 20.25712,5.90833 7.11411,5.90833 7.11411,16.88094 v 41.23772 h -10.24914 v -7.11411 q -6.51122,7.95815 -20.61886,7.83758 z m -13.14301,-19.17193 q 0,10.61088 15.19284,10.61088 9.28452,0 13.74591,-3.8585 4.58197,-3.97908 4.58197,-12.17839 v -4.94371 h -17.96615 q -8.07873,0 -11.81665,2.53215 -3.73792,2.53214 -3.73792,7.83757 z m 87.66031,19.53366 q -13.86648,0 -21.46291,-7.59642 -7.59642,-7.717 -7.59642,-22.0658 v -6.27006 q 0,-14.3488 7.59642,-21.94522 7.717,-7.717 21.34233,-7.717 12.54013,0 19.53366,6.14948 6.99353,6.14949 6.99353,16.88094 v 0.60289 h -10.24914 v -0.60289 q 0,-6.39064 -4.22024,-10.00798 -4.09965,-3.61735 -11.93723,-3.61735 -18.56903,0 -18.56903,20.49828 v 5.78775 q 0,20.61886 18.56903,20.61886 7.717,0 11.93723,-3.49676 4.22024,-3.49677 4.22024,-9.88741 v -0.48231 h 10.24914 v 0.48231 q 0,10.61088 -6.99353,16.63978 -6.99353,6.02891 -19.41308,6.02891 z m 68.60896,0 q -13.86649,0 -21.70407,-7.717 -7.717,-7.717 -7.717,-22.54811 v -5.06428 q 0,-14.71053 7.47585,-22.42753 7.47584,-7.83758 20.61886,-7.83758 13.02244,0 20.3777,7.23469 7.35527,7.23468 7.35527,20.86001 v 7.35527 h -45.33738 v 0.48231 q 0,20.49828 19.17192,20.49828 7.11411,0 11.21377,-3.25561 4.09966,-3.37618 4.22023,-8.68162 v -0.36174 h 10.36972 v 0.48232 q -0.12058,6.0289 -3.49676,10.85203 -3.25561,4.70254 -9.04336,7.47584 -5.78775,2.65272 -13.50475,2.65272 z m -18.93077,-37.98211 h 34.84708 v -1.0852 q 0,-8.56105 -4.58197,-12.90186 -4.46139,-4.34081 -12.6607,-4.34081 -8.07874,0 -12.90186,4.58196 -4.70255,4.46139 -4.70255,13.62533 z m 83.68124,37.62038 q -12.41954,0 -19.53365,-5.18486 -7.11411,-5.30544 -7.11411,-14.46938 v -0.36173 h 10.00798 v 0.24115 q 0,5.18486 4.22024,8.07874 4.34081,2.89387 12.90185,2.89387 7.83758,0 12.41955,-2.65272 4.58197,-2.65272 4.58197,-7.47584 0,-4.22023 -3.49677,-6.14948 -3.37618,-2.04983 -10.24914,-2.7733 l -9.04336,-1.0852 q -10.49029,-1.32636 -15.434,-5.42602 -4.9437,-4.09966 -4.9437,-11.69608 0,-8.8022 6.87295,-13.7459 6.99354,-4.94371 18.81019,-4.94371 12.29897,0 19.2925,5.06428 7.11411,5.06428 7.11411,13.62533 v 0.48231 h -10.00798 v -0.36173 q 0,-5.06428 -4.22024,-7.717 -4.22023,-2.65272 -12.05781,-2.65272 -8.07873,0 -11.93723,2.53214 -3.8585,2.53214 -3.8585,6.99353 0,3.8585 2.65271,6.02891 2.7733,2.04983 10.00799,2.7733 l 9.52567,1.20578 q 10.73145,1.20578 15.79574,5.42601 5.18485,4.22024 5.18485,11.81666 0,9.28451 -7.35526,14.46937 -7.35527,5.06429 -20.13655,5.06429 z"
         id="path3" />
      <path
         d="m -281.33218,433.33867 v -83.19891 h 10.36972 v 8.44047 q 3.13503,-4.46139 8.19931,-6.99353 5.18486,-2.65272 11.93724,-2.65272 11.93723,0 19.17192,7.59642 7.23469,7.59642 7.23469,21.70406 v 6.6318 q 0,14.3488 -7.35527,21.94522 -7.23469,7.59642 -19.05134,7.59642 -13.62533,0 -20.01597,-9.28452 v 28.21529 z m 10.4903,-47.38721 q 0,8.80221 4.9437,13.98706 5.06428,5.18486 13.50475,5.18486 8.31989,0 12.90186,-5.18486 4.58197,-5.30543 4.58197,-15.55457 v -5.5466 q 0,-10.24914 -4.58197,-15.434 -4.58197,-5.18486 -13.14301,-5.18486 -8.44047,0 -13.38418,5.30544 -4.82312,5.18486 -4.82312,14.10764 z m 61.01253,27.37124 v -63.18294 h 10.36972 v 8.8022 q 6.39064,-9.64625 20.13655,-9.64625 2.77329,0 5.06428,0.36174 v 10.00798 q -3.49677,-0.96462 -6.99353,-1.0852 -8.07874,0 -13.14302,4.9437 -4.9437,4.82313 -4.9437,13.38417 v 36.4146 z m 74.15555,1.0852 q -13.86649,0 -21.70406,-7.717 -7.717,-7.717 -7.717,-22.54811 v -5.06428 q 0,-14.71053 7.47584,-22.42753 7.47584,-7.83758 20.61886,-7.83758 13.02244,0 20.3777,7.23469 7.35527,7.23468 7.35527,20.86001 v 7.35527 h -45.33738 v 0.48231 q 0,20.49828 19.17193,20.49828 7.1141,0 11.21376,-3.25561 4.09966,-3.37618 4.22024,-8.68162 v -0.36174 h 10.36971 v 0.48232 q -0.12057,6.0289 -3.49676,10.85203 -3.25561,4.70254 -9.04336,7.47584 -5.78775,2.65272 -13.50475,2.65272 z m -18.93077,-37.98211 h 34.84708 v -1.0852 q 0,-8.56105 -4.58197,-12.90186 -4.46139,-4.34081 -12.6607,-4.34081 -8.07873,0 -12.90186,4.58196 -4.70255,4.46139 -4.70255,13.62533 z m 83.681214,37.62038 q -12.419547,0 -19.533657,-5.18486 -7.114109,-5.30544 -7.114109,-14.46938 v -0.36173 h 10.007984 v 0.24115 q 0,5.18486 4.220235,8.07874 4.340812,2.89387 12.901859,2.89387 7.837578,0 12.419547,-2.65272 4.581969,-2.65272 4.581969,-7.47584 0,-4.22023 -3.496766,-6.14948 -3.376187,-2.04983 -10.249141,-2.7733 l -9.043359,-1.0852 q -10.490297,-1.32636 -15.434,-5.42602 -4.943703,-4.09966 -4.943703,-11.69608 0,-8.8022 6.872953,-13.7459 6.993531,-4.94371 18.810188,-4.94371 12.298968,0 19.2925,5.06428 7.114109,5.06428 7.114109,13.62533 v 0.48231 h -10.007984 v -0.36173 q 0,-5.06428 -4.220235,-7.717 -4.220234,-2.65272 -12.057812,-2.65272 -8.078735,0 -11.937235,2.53214 -3.8585,2.53214 -3.8585,6.99353 0,3.8585 2.652719,6.02891 2.773297,2.04983 10.007984,2.7733 l 9.525672,1.20578 q 10.731453,1.20578 15.795735,5.42601 5.184859,4.22024 5.184859,11.81666 0,9.28451 -7.355266,14.46937 -7.355265,5.06429 -20.136546,5.06429 z m 67.7649054,0.36173 q -13.8664844,0 -21.7040624,-7.717 -7.717,-7.717 -7.717,-22.54811 v -5.06428 q 0,-14.71053 7.475844,-22.42753 7.475843,-7.83758 20.618859,-7.83758 13.0224375,0 20.377703,7.23469 7.355266,7.23468 7.355266,20.86001 v 7.35527 h -45.337375 v 0.48231 q 0,20.49828 19.1719216,20.49828 7.1141094,0 11.2137656,-3.25561 4.0996558,-3.37618 4.2202348,-8.68162 v -0.36174 h 10.369718 v 0.48232 q -0.120578,6.0289 -3.496765,10.85203 -3.25561,4.70254 -9.04336,7.47584 -5.7877496,2.65272 -13.5047496,2.65272 z M -22.089216,376.42579 h 34.847078 v -1.0852 q 0,-8.56105 -4.5819689,-12.90186 -4.4613906,-4.34081 -12.6607031,-4.34081 -8.078734,0 -12.901859,4.58196 -4.702547,4.46139 -4.702547,13.62533 z M 38.07926,413.3227 v -63.18294 h 10.369718 v 8.8022 q 6.390641,-9.64625 20.136547,-9.64625 2.773297,0 5.064281,0.36174 v 10.00798 q -3.496765,-0.96462 -6.993531,-1.0852 -8.078734,0 -13.143015,4.9437 -4.943704,4.82313 -4.943704,13.38417 v 36.4146 z m 64.87105,0 -24.959668,-63.18294 h 11.213765 l 18.930763,50.03992 18.81019,-50.03992 h 11.21377 l -24.95968,63.18294 z m 65.47391,0.72347 q -11.33435,0 -17.48383,-4.94371 -6.02891,-4.9437 -6.02891,-14.10764 0,-8.92278 6.14949,-13.62533 6.14948,-4.70254 18.08672,-4.70254 h 19.65423 v -4.34082 q 0,-14.34879 -16.76036,-14.34879 -7.23469,0 -11.09319,2.77329 -3.73792,2.65272 -3.73792,7.59643 v 0.36173 h -10.24914 v -0.36173 q 0,-8.92279 6.6318,-13.98707 6.75237,-5.06428 18.32787,-5.06428 13.2636,0 20.25713,5.90833 7.11411,5.90833 7.11411,16.88094 v 41.23772 h -10.24914 v -7.11411 q -6.51122,7.95815 -20.61886,7.83758 z M 155.2812,394.87424 q 0,10.61088 15.19285,10.61088 9.28451,0 13.7459,-3.8585 4.58197,-3.97908 4.58197,-12.17839 v -4.94371 h -17.96614 q -8.07873,0 -11.81666,2.53215 -3.73792,2.53214 -3.73792,7.83757 z m 86.0928,18.44846 q -18.93077,0 -18.93077,-18.2073 v -37.13806 h -11.09318 v -7.83758 h 11.09318 v -13.74591 l 10.4903,-4.34081 v 18.08672 h 16.76036 v 7.83758 h -16.76036 v 36.53517 q 0,5.30544 2.41156,7.47584 2.41157,2.17041 7.717,2.17041 h 5.30544 v 9.16394 z m 22.54809,0 v -63.18294 h 10.49029 v 63.18294 z m 0,-73.67324 v -11.45492 h 10.49029 v 11.45492 z m 55.1042,74.75844 q -13.50475,0 -21.34232,-7.59642 -7.717,-7.59642 -7.717,-22.0658 v -6.27006 q 0,-14.46938 7.717,-22.0658 7.83757,-7.59642 21.34232,-7.59642 13.62533,0 21.10118,7.717 7.59642,7.717 7.59642,21.94522 v 6.27006 q 0,14.46938 -7.59642,22.0658 -7.47585,7.59642 -21.10118,7.59642 z m -18.56903,-29.90338 q 0,20.61886 18.44846,20.61886 18.32787,0 18.32787,-20.61886 v -5.78775 q 0,-20.49828 -18.32787,-20.49828 -18.44846,0 -18.44846,20.49828 z m 61.97716,28.81818 v -63.18294 h 10.36972 v 8.44047 q 6.87295,-9.16394 20.13655,-9.16394 11.21376,0 17.36325,6.39064 6.14948,6.27006 6.14948,17.72499 v 39.79078 h -10.49029 v -38.34385 q 0,-16.27804 -15.67516,-16.27804 -7.95816,0 -12.6607,4.70254 -4.70255,4.70255 -4.70255,12.90186 v 37.01749 z"
         id="path4" />
      <path
         d="m -254.44326,568.50674 q -13.14301,0 -20.01597,-6.75237 -6.87295,-6.75238 -6.87295,-19.17192 v -38.10269 h 10.4903 v 37.01748 q 0,17.60441 16.5192,17.60441 8.56105,0 12.54013,-4.34081 3.97907,-4.46139 3.97907,-13.2636 v -37.01748 h 10.4903 v 38.10269 q 0,12.41954 -6.99353,19.17192 -6.87295,6.75237 -20.13655,6.75237 z m 67.16202,-0.12057 q -12.41955,0 -19.53366,-5.18486 -7.11411,-5.30544 -7.11411,-14.46938 v -0.36173 h 10.00799 v 0.24115 q 0,5.18486 4.22023,8.07874 4.34081,2.89387 12.90186,2.89387 7.83758,0 12.41955,-2.65272 4.58196,-2.65272 4.58196,-7.47584 0,-4.22023 -3.49676,-6.14948 -3.37619,-2.04983 -10.24914,-2.7733 l -9.04336,-1.0852 q -10.4903,-1.32636 -15.434,-5.42602 -4.9437,-4.09966 -4.9437,-11.69608 0,-8.8022 6.87295,-13.7459 6.99353,-4.94371 18.81019,-4.94371 12.29897,0 19.2925,5.06428 7.11411,5.06428 7.11411,13.62533 v 0.48231 h -10.00799 v -0.36173 q 0,-5.06428 -4.22023,-7.717 -4.22024,-2.65272 -12.05782,-2.65272 -8.07873,0 -11.93723,2.53214 -3.8585,2.53214 -3.8585,6.99353 0,3.8585 2.65272,6.02891 2.7733,2.04983 10.00798,2.7733 l 9.52568,1.20578 q 10.73145,1.20578 15.79573,5.42601 5.18486,4.22024 5.18486,11.81666 0,9.28451 -7.35527,14.46937 -7.35526,5.06429 -20.13654,5.06429 z m 67.76491,0.36173 q -13.86648,0 -21.70406,-7.717 -7.717,-7.717 -7.717,-22.54811 v -5.06428 q 0,-14.71053 7.47584,-22.42753 7.47584,-7.83758 20.61886,-7.83758 13.02244,0 20.3777,7.23469 7.355269,7.23468 7.355269,20.86001 v 7.35527 H -138.4471 v 0.48231 q 0,20.49828 19.17193,20.49828 7.11411,0 11.21376,-3.25561 4.09966,-3.37618 4.22024,-8.68162 v -0.36174 h 10.369715 v 0.48232 q -0.120578,6.0289 -3.496766,10.85203 -3.255609,4.70254 -9.043359,7.47584 -5.78775,2.65272 -13.50475,2.65272 z m -18.93077,-37.98211 h 34.84708 v -1.0852 q 0,-8.56105 -4.58197,-12.90186 -4.46139,-4.34081 -12.6607,-4.34081 -8.07873,0 -12.90186,4.58196 -4.70255,4.46139 -4.70255,13.62533 z m 60.16848,36.89691 v -63.18294 h 10.369719 v 8.8022 q 6.39064,-9.64625 20.136547,-9.64625 2.773296,0 5.064281,0.36174 v 10.00798 q -3.496766,-0.96462 -6.993531,-1.0852 -8.078735,0 -13.143016,4.9437 -4.943703,4.82313 -4.943703,13.38417 v 36.4146 z m 77.1699924,1.0852 q -13.8664844,0 -20.1365474,-9.28452 v 8.19932 h -10.369718 v -85.24874 h 10.490297 v 30.50627 q 3.014453,-4.46139 8.078734,-7.11411 5.0642812,-2.65272 11.9372344,-2.65272 12.0578126,0 19.1719216,7.717 7.234688,7.717 7.234688,21.70406 v 6.6318 q 0,14.3488 -7.355266,21.94522 -7.234687,7.59642 -19.0513436,7.59642 z M -21.124596,540.29146 q 0,8.80221 4.943703,13.98706 5.064281,5.18486 13.5047497,5.18486 8.3198907,0 12.9018593,-5.18486 4.581969,-5.30543 4.581969,-15.55457 v -5.66718 q 0,-10.36971 -4.581969,-15.434 -4.5819686,-5.06428 -13.1430155,-5.06428 -8.4404685,0 -13.3841715,5.30544 -4.823125,5.18486 -4.823125,14.10764 z m 88.142619,28.45644 q -13.50475,0 -21.342328,-7.59642 -7.717,-7.59642 -7.717,-22.0658 v -6.27006 q 0,-14.46938 7.717,-22.0658 7.837578,-7.59642 21.342328,-7.59642 13.625328,0 21.101172,7.717 7.596422,7.717 7.596422,21.94522 v 6.27006 q 0,14.46938 -7.596422,22.0658 -7.475844,7.59642 -21.101172,7.59642 z M 48.448992,538.84452 q 0,20.61886 18.448453,20.61886 18.327875,0 18.327875,-20.61886 v -5.78775 q 0,-20.49828 -18.327875,-20.49828 -18.448453,0 -18.448453,20.49828 z m 87.539728,28.81818 q -18.93077,0 -18.93077,-18.2073 v -37.13806 h -11.09319 v -7.83758 h 11.09319 v -13.74591 l 10.4903,-4.34081 v 18.08672 h 16.76036 v 7.83758 h -16.76036 v 36.53517 q 0,5.30544 2.41156,7.47584 2.41156,2.17041 7.717,2.17041 h 5.30544 v 9.16394 z"
         id="path5" />
      <path
         d="m -255.76962,722.0027 q -18.93076,0 -18.93076,-18.2073 v -37.13806 h -11.09319 v -7.83758 h 11.09319 v -13.74591 l 10.4903,-4.34081 v 18.08672 h 16.76035 v 7.83758 h -16.76035 v 36.53517 q 0,5.30544 2.41156,7.47584 2.41156,2.17041 7.717,2.17041 h 5.30544 v 9.16394 z m 48.83414,1.0852 q -13.50475,0 -21.34232,-7.59642 -7.717,-7.59642 -7.717,-22.0658 v -6.27006 q 0,-14.46938 7.717,-22.0658 7.83757,-7.59642 21.34232,-7.59642 13.62533,0 21.10118,7.717 7.59642,7.717 7.59642,21.94522 v 6.27006 q 0,14.46938 -7.59642,22.0658 -7.47585,7.59642 -21.10118,7.59642 z m -18.56903,-29.90337 q 0,20.61885 18.44846,20.61885 18.32787,0 18.32787,-20.61885 v -5.78775 q 0,-20.49829 -18.32787,-20.49829 -18.44846,0 -18.44846,20.49829 z m 89.10723,29.90337 q -13.50475,0 -21.34232,-7.59642 -7.717,-7.59642 -7.717,-22.0658 v -6.27006 q 0,-14.46938 7.717,-22.0658 7.83757,-7.59642 21.34232,-7.59642 13.62533,0 21.10118,7.717 7.59642,7.717 7.59642,21.94522 v 6.27006 q 0,14.46938 -7.59642,22.0658 -7.47585,7.59642 -21.10118,7.59642 z m -18.56903,-29.90337 q 0,20.61885 18.44846,20.61885 18.32787,0 18.32787,-20.61885 v -5.78775 q 0,-20.49829 -18.32787,-20.49829 -18.44846,0 -18.44846,20.49829 z m 81.269649,28.81817 q -9.887406,0 -14.589953,-4.58197 -4.702547,-4.58197 -4.702547,-14.46938 v -66.19739 h 10.490297 v 65.5945 q 0,5.5466 2.290984,7.95816 2.411563,2.29098 7.958157,2.29098 h 5.426015 v 9.4051 z m 65.1121961,0.72347 q -11.3343441,0 -17.4838281,-4.94371 -6.028906,-4.9437 -6.028906,-14.10764 0,-8.92278 6.149484,-13.62533 6.149484,-4.70254 18.0867188,-4.70254 H 11.793238 v -4.34082 q 0,-14.34879 -16.7603592,-14.34879 -7.2346878,0 -11.0931878,2.77329 -3.737922,2.65272 -3.737922,7.59643 v 0.36173 h -10.24914 v -0.36173 q 0,-8.92278 6.631797,-13.98707 6.752375,-5.06428 18.3278747,-5.06428 13.2635938,0 20.2571253,5.90833 7.114109,5.90833 7.114109,16.88094 V 722.0027 H 12.034394 v -7.11411 q -6.5112183,7.95815 -20.6188589,7.83758 z M -21.727481,703.55424 q 0,10.61088 15.1928442,10.61088 9.2845156,0 13.7459063,-3.8585 4.5819685,-3.97908 4.5819685,-12.17839 v -4.9437 H -6.1729024 q -8.0787346,0 -11.8166566,2.53214 -3.737922,2.53214 -3.737922,7.83757 z m 84.042955,19.17193 q -12.419547,0 -19.533656,-5.18486 -7.114109,-5.30544 -7.114109,-14.46938 v -0.36173 h 10.007984 v 0.24115 q 0,5.18486 4.220234,8.07874 4.340813,2.89387 12.90186,2.89387 7.837578,0 12.419547,-2.65272 4.581968,-2.65271 4.581968,-7.47584 0,-4.22023 -3.496765,-6.14948 -3.376188,-2.04983 -10.249141,-2.7733 l -9.043359,-1.0852 q -10.490297,-1.32636 -15.434,-5.42602 -4.943703,-4.09966 -4.943703,-11.69608 0,-8.8022 6.872953,-13.7459 6.993531,-4.94371 18.810187,-4.94371 12.298969,0 19.2925,5.06428 7.11411,5.06429 7.11411,13.62533 v 0.48231 H 78.714099 v -0.36173 q 0,-5.06428 -4.220234,-7.717 -4.220235,-2.65272 -12.057813,-2.65272 -8.078734,0 -11.937234,2.53214 -3.8585,2.53214 -3.8585,6.99353 0,3.8585 2.652719,6.02891 2.773297,2.04983 10.007984,2.7733 l 9.525672,1.20578 q 10.731453,1.20578 15.795734,5.42601 5.18486,4.22024 5.18486,11.81666 0,9.28452 -7.355266,14.46937 -7.355266,5.06429 -20.136547,5.06429 z m 63.785826,0 q -12.41955,0 -19.53365,-5.18486 -7.114114,-5.30544 -7.114114,-14.46938 v -0.36173 h 10.007984 v 0.24115 q 0,5.18486 4.22023,8.07874 4.34082,2.89387 12.90186,2.89387 7.83758,0 12.41955,-2.65272 4.58197,-2.65271 4.58197,-7.47584 0,-4.22023 -3.49677,-6.14948 -3.37618,-2.04983 -10.24914,-2.7733 l -9.04336,-1.0852 q -10.49029,-1.32636 -15.434,-5.42602 -4.9437,-4.09966 -4.9437,-11.69608 0,-8.8022 6.87295,-13.7459 6.99354,-4.94371 18.81019,-4.94371 12.29897,0 19.2925,5.06428 7.11411,5.06429 7.11411,13.62533 v 0.48231 h -10.00798 v -0.36173 q 0,-5.06428 -4.22024,-7.717 -4.22023,-2.65272 -12.05781,-2.65272 -8.07873,0 -11.93723,2.53214 -3.8585,2.53214 -3.8585,6.99353 0,3.8585 2.65271,6.02891 2.7733,2.04983 10.00799,2.7733 l 9.52567,1.20578 q 10.73145,1.20578 15.79573,5.42601 5.18486,4.22024 5.18486,11.81666 0,9.28452 -7.35526,14.46937 -7.35527,5.06429 -20.13655,5.06429 z m 63.78583,0 q -12.41955,0 -19.53366,-5.18486 -7.11411,-5.30544 -7.11411,-14.46938 v -0.36173 h 10.00799 v 0.24115 q 0,5.18486 4.22023,8.07874 4.34082,2.89387 12.90186,2.89387 7.83758,0 12.41955,-2.65272 4.58197,-2.65271 4.58197,-7.47584 0,-4.22023 -3.49677,-6.14948 -3.37619,-2.04983 -10.24914,-2.7733 l -9.04336,-1.0852 q -10.49029,-1.32636 -15.434,-5.42602 -4.9437,-4.09966 -4.9437,-11.69608 0,-8.8022 6.87295,-13.7459 6.99353,-4.94371 18.81019,-4.94371 12.29897,0 19.2925,5.06428 7.11411,5.06429 7.11411,13.62533 v 0.48231 h -10.00799 v -0.36173 q 0,-5.06428 -4.22023,-7.717 -4.22023,-2.65272 -12.05781,-2.65272 -8.07874,0 -11.93724,2.53214 -3.8585,2.53214 -3.8585,6.99353 0,3.8585 2.65272,6.02891 2.7733,2.04983 10.00799,2.7733 l 9.52567,1.20578 q 10.73145,1.20578 15.79573,5.42601 5.18486,4.22024 5.18486,11.81666 0,9.28452 -7.35526,14.46937 -7.35527,5.06429 -20.13655,5.06429 z m 41.11714,-0.72347 v -63.18294 h 10.4903 v 63.18294 z m 0,-73.67324 v -11.45492 h 10.4903 v 11.45492 z m 51.48683,74.39671 q -12.41954,0 -19.53365,-5.18486 -7.11411,-5.30544 -7.11411,-14.46938 v -0.36173 h 10.00798 v 0.24115 q 0,5.18486 4.22024,8.07874 4.34081,2.89387 12.90186,2.89387 7.83757,0 12.41954,-2.65272 4.58197,-2.65271 4.58197,-7.47584 0,-4.22023 -3.49676,-6.14948 -3.37619,-2.04983 -10.24915,-2.7733 l -9.04335,-1.0852 q -10.4903,-1.32636 -15.434,-5.42602 -4.94371,-4.09966 -4.94371,-11.69608 0,-8.8022 6.87296,-13.7459 6.99353,-4.94371 18.81018,-4.94371 12.29897,0 19.2925,5.06428 7.11411,5.06429 7.11411,13.62533 v 0.48231 h -10.00798 v -0.36173 q 0,-5.06428 -4.22024,-7.717 -4.22023,-2.65272 -12.05781,-2.65272 -8.07873,0 -11.93723,2.53214 -3.8585,2.53214 -3.8585,6.99353 0,3.8585 2.65272,6.02891 2.77329,2.04983 10.00798,2.7733 l 9.52567,1.20578 q 10.73145,1.20578 15.79574,5.42601 5.18486,4.22024 5.18486,11.81666 0,9.28452 -7.35527,14.46937 -7.35527,5.06429 -20.13655,5.06429 z m 65.83566,-0.72347 q -18.93077,0 -18.93077,-18.2073 v -37.13806 h -11.09318 v -7.83758 h 11.09318 v -13.74591 l 10.4903,-4.34081 v 18.08672 h 16.76036 v 7.83758 h -16.76036 v 36.53517 q 0,5.30544 2.41156,7.47584 2.41156,2.17041 7.717,2.17041 h 5.30544 v 9.16394 z m 42.0818,0.72347 q -11.33434,0 -17.48383,-4.94371 -6.0289,-4.9437 -6.0289,-14.10764 0,-8.92278 6.14948,-13.62533 6.14949,-4.70254 18.08672,-4.70254 h 19.65423 v -4.34082 q 0,-14.34879 -16.76035,-14.34879 -7.23469,0 -11.09319,2.77329 -3.73792,2.65272 -3.73792,7.59643 v 0.36173 h -10.24914 v -0.36173 q 0,-8.92278 6.63179,-13.98707 6.75238,-5.06428 18.32788,-5.06428 13.26359,0 20.25712,5.90833 7.11411,5.90833 7.11411,16.88094 v 41.23772 h -10.24914 v -7.11411 q -6.51122,7.95815 -20.61886,7.83758 z m -13.14301,-19.17193 q 0,10.61088 15.19284,10.61088 9.28452,0 13.74591,-3.8585 4.58196,-3.97908 4.58196,-12.17839 v -4.9437 h -17.96614 q -8.07873,0 -11.81665,2.53214 -3.73792,2.53214 -3.73792,7.83757 z m 60.5302,18.44846 v -63.18294 h 10.36972 v 8.44047 q 6.87295,-9.16394 20.13655,-9.16394 11.21376,0 17.36325,6.39064 6.14948,6.27006 6.14948,17.72499 v 39.79078 h -10.4903 v -38.34385 q 0,-16.27804 -15.67515,-16.27804 -7.95816,0 -12.66071,4.70254 -4.70254,4.70255 -4.70254,12.90186 v 37.01749 z m 97.66829,1.0852 q -13.86649,0 -21.46291,-7.59642 -7.59642,-7.717 -7.59642,-22.0658 v -6.27006 q 0,-14.3488 7.59642,-21.94522 7.717,-7.717 21.34233,-7.717 12.54012,0 19.53366,6.14948 6.99353,6.14949 6.99353,16.88094 v 0.60289 h -10.24914 v -0.60289 q 0,-6.39064 -4.22024,-10.00798 -4.09965,-3.61735 -11.93723,-3.61735 -18.56903,0 -18.56903,20.49829 v 5.78775 q 0,20.61885 18.56903,20.61885 7.717,0 11.93723,-3.49676 4.22024,-3.49677 4.22024,-9.88741 v -0.48231 h 10.24914 v 0.48231 q 0,10.61088 -6.99353,16.63978 -6.99354,6.02891 -19.41308,6.02891 z m 68.60892,0 q -13.86648,0 -21.70406,-7.717 -7.717,-7.717 -7.717,-22.54811 v -5.06428 q 0,-14.71053 7.47585,-22.42753 7.47584,-7.83758 20.61885,-7.83758 13.02244,0 20.37771,7.23469 7.35526,7.23469 7.35526,20.86001 v 7.35527 H 585.1422 v 0.48231 q 0,20.49828 19.17192,20.49828 7.11411,0 11.21377,-3.25561 4.09965,-3.37618 4.22023,-8.68162 v -0.36174 h 10.36972 v 0.48232 q -0.12058,6.0289 -3.49677,10.85203 -3.25561,4.70254 -9.04336,7.47584 -5.78775,2.65272 -13.50475,2.65272 z M 585.1422,685.10579 h 34.84708 v -1.0852 q 0,-8.56105 -4.58197,-12.90186 -4.46139,-4.34081 -12.66071,-4.34081 -8.07873,0 -12.90185,4.58196 -4.70255,4.4614 -4.70255,13.62533 z"
         id="path6" />
    </g>
    <g
       id="text1"
       style="font-stretch:expanded;font-size:466.667px;line-height:0.6;font-family:'DINish Expanded';-inkscape-font-specification:'DINish Expanded, Expanded';white-space:pre;fill:#cdd6f4"
       inkscape:label="Text"
       transform="matrix(0.26458333,0,0,0.26458333,-64.683606,-92.50121)"
       aria-label="ctfd-autorouter">
      <path
         style="font-stretch:normal;font-size:280px;-inkscape-font-specification:'DINish Expanded, Normal'"
         d="m 484.82812,779.10822 q -31.44531,0 -48.67187,-17.22656 -17.22656,-17.5 -17.22656,-50.03906 v -14.21875 q 0,-32.53906 17.22656,-49.76563 17.5,-17.5 48.39844,-17.5 28.4375,0 44.29687,13.94532 15.85938,13.94531 15.85938,38.28125 v 1.36718 h -23.24219 v -1.36718 q 0,-14.49219 -9.57031,-22.69532 -9.29688,-8.20312 -27.07032,-8.20312 -42.10937,0 -42.10937,46.48437 v 13.125 q 0,46.75782 42.10937,46.75782 17.5,0 27.07032,-7.92969 9.57031,-7.92969 9.57031,-22.42188 v -1.09375 h 23.24219 v 1.09375 q 0,24.0625 -15.85938,37.73438 -15.85937,13.67187 -44.02344,13.67187 z m 151.21094,-2.46093 q -42.92969,0 -42.92969,-41.28907 v -84.21875 h -25.15625 v -17.77343 h 25.15625 v -31.17188 l 23.78907,-9.84375 v 41.01563 h 38.00781 v 17.77343 h -38.00781 v 82.85157 q 0,12.03125 5.46875,16.95312 5.46875,4.92188 17.5,4.92188 h 12.03125 v 20.78125 z m 63.16406,0 V 651.13947 h -20.23437 v -17.77343 h 20.23437 v -10.11719 q 0,-19.41406 10.9375,-29.53125 10.9375,-10.39063 31.44532,-10.39063 h 17.22656 v 17.77344 h -13.125 q -11.75781,0 -17.22656,5.19531 -5.46875,4.92188 -5.46875,16.13282 v 10.9375 h 35.82031 v 17.77343 h -35.82031 v 125.50782 z m 142.73438,2.46093 q -27.34375,0 -43.47656,-17.22656 -15.85938,-17.22656 -15.85938,-49.21875 v -15.58594 q 0,-31.71875 15.85938,-49.21875 16.13281,-17.5 42.92968,-17.5 15.3125,0 27.34375,5.74219 12.30469,5.74219 19.14063,16.13281 v -68.90625 h 23.51562 V 776.64729 H 887.875 V 757.7801 q -14.76563,21.32812 -45.9375,21.32812 z m -35.54688,-67.8125 q 0,23.24219 10.39063,35 10.66406,11.75782 29.80469,11.75782 19.41406,0 30.35156,-11.75782 10.9375,-11.75781 10.9375,-31.71875 v -18.86718 q 0,-20.50782 -11.21094,-32.26563 -10.9375,-11.75781 -30.35156,-11.75781 -19.41406,0 -29.80469,11.75781 -10.11719,11.75781 -10.11719,35 z M 944.75,691.06135 v -22.69531 h 89.1406 v 22.69531 z"
         id="path1" />
      <path
         style="font-stretch:normal;font-size:280px;-inkscape-font-specification:'DINish Expanded, Normal'"
         d="m 469.51562,1059.9564 q -25.70312,0 -39.64843,-11.211 -13.67188,-11.2109 -13.67188,-31.9922 0,-20.23433 13.94531,-30.8984 13.94532,-10.66406 41.01563,-10.66406 h 44.57031 v -9.84375 q 0,-32.53906 -38.00781,-32.53906 -16.40625,0 -25.15625,6.28906 -8.47656,6.01563 -8.47656,17.22656 v 0.82032 h -23.24219 v -0.82032 q 0,-20.23437 15.03906,-31.71875 15.3125,-11.48437 41.5625,-11.48437 30.07813,0 45.9375,13.39844 16.13281,13.39843 16.13281,38.28125 v 93.51558 h -23.24218 v -16.1328 q -14.76563,18.0469 -46.75782,17.7735 z m -29.80468,-43.4766 q 0,24.0625 34.45312,24.0625 21.05469,0 31.17188,-8.75 10.39062,-9.0234 10.39062,-27.6172 v -11.21092 h -40.74219 q -18.32031,0 -26.79687,5.74219 -8.47656,5.74223 -8.47656,17.77343 z m 198.24218,43.75 q -29.80468,0 -45.39062,-15.3125 -15.58594,-15.3125 -15.58594,-43.4766 v -86.40621 h 23.78906 v 83.94531 q 0,39.9219 37.46094,39.9219 19.41406,0 28.4375,-9.8438 9.02344,-10.1172 9.02344,-30.0781 v -83.94531 h 23.78906 v 86.40621 q 0,28.1641 -15.85937,43.4766 -15.58594,15.3125 -45.66407,15.3125 z m 156.95313,-1.9141 q -42.92969,0 -42.92969,-41.289 v -84.21877 h -25.15625 v -17.77344 h 25.15625 v -31.17187 l 23.78906,-9.84375 v 41.01562 h 38.00782 v 17.77344 h -38.00782 v 82.85157 q 0,12.0312 5.46875,16.9531 5.46875,4.9219 17.5,4.9219 h 12.03125 v 20.7812 z m 110.74219,2.461 q -30.625,0 -48.39844,-17.2266 -17.5,-17.2265 -17.5,-50.03905 V 979.2923 q 0,-32.8125 17.5,-50.03906 17.77344,-17.22656 48.39844,-17.22656 30.89843,0 47.85156,17.5 17.22656,17.5 17.22656,49.76562 v 14.21875 q 0,32.81255 -17.22656,50.03905 -16.95313,17.2266 -47.85156,17.2266 z m -42.10938,-67.81252 q 0,46.75782 41.83594,46.75782 41.5625,0 41.5625,-46.75782 v -13.125 q 0,-46.48438 -41.5625,-46.48438 -41.83594,0 -41.83594,46.48438 z m 140.54684,65.35152 V 915.03449 h 23.5157 v 19.96094 q 14.4922,-21.875 45.664,-21.875 6.2891,0 11.4844,0.82031 v 22.69531 q -7.9297,-2.1875 -15.8594,-2.46093 -18.3203,0 -29.8047,11.21093 -11.2109,10.9375 -11.2109,30.35157 v 82.57808 z m 167.3438,2.461 q -30.625,0 -48.3984,-17.2266 -17.5,-17.2265 -17.5,-50.03905 V 979.2923 q 0,-32.8125 17.5,-50.03906 17.7734,-17.22656 48.3984,-17.22656 30.8984,0 47.8516,17.5 17.2265,17.5 17.2265,49.76562 v 14.21875 q 0,32.81255 -17.2265,50.03905 -16.9532,17.2266 -47.8516,17.2266 z m -42.1094,-67.81252 q 0,46.75782 41.836,46.75782 41.5625,0 41.5625,-46.75782 v -13.125 q 0,-46.48438 -41.5625,-46.48438 -41.836,0 -41.836,46.48438 z m 201.5235,67.26562 q -29.8047,0 -45.3907,-15.3125 -15.5859,-15.3125 -15.5859,-43.4766 v -86.40621 h 23.7891 v 83.94531 q 0,39.9219 37.4609,39.9219 19.4141,0 28.4375,-9.8438 9.0234,-10.1172 9.0234,-30.0781 v -83.94531 h 23.7891 v 86.40621 q 0,28.1641 -15.8594,43.4766 -15.5859,15.3125 -45.664,15.3125 z m 156.9531,-1.9141 q -42.9297,0 -42.9297,-41.289 v -84.21877 h -25.1563 v -17.77344 h 25.1563 v -31.17187 l 23.7891,-9.84375 v 41.01562 h 38.0078 v 17.77344 h -38.0078 v 82.85157 q 0,12.0312 5.4687,16.9531 5.4688,4.9219 17.5,4.9219 h 12.0313 v 20.7812 z m 111.5625,2.461 q -31.4453,0 -49.2188,-17.5 -17.5,-17.5 -17.5,-51.13283 v -11.48438 q 0,-33.35937 16.9532,-50.85937 16.9531,-17.77344 46.7578,-17.77344 29.5312,0 46.2109,16.40625 16.6797,16.40625 16.6797,47.30469 v 16.67968 h -102.8125 v 1.09375 q 0,46.48435 43.4766,46.48435 16.1328,0 25.4296,-7.3828 9.2969,-7.6562 9.5704,-19.6875 v -0.8203 h 23.5156 v 1.0938 q -0.2735,13.6718 -7.9297,24.6093 -7.3828,10.6641 -20.5078,16.9532 -13.125,6.0156 -30.625,6.0156 z m -42.9297,-86.13283 h 79.0234 v -2.46094 q 0,-19.41406 -10.3906,-29.25781 -10.1172,-9.84375 -28.7109,-9.84375 -18.3203,0 -29.2578,10.39062 -10.6641,10.11719 -10.6641,30.89844 z m 136.4453,83.67183 V 915.03449 h 23.5156 v 19.96094 q 14.4922,-21.875 45.6641,-21.875 6.2891,0 11.4844,0.82031 v 22.69531 q -7.9297,-2.1875 -15.8594,-2.46093 -18.3203,0 -29.8047,11.21093 -11.2109,10.9375 -11.2109,30.35157 v 82.57808 z"
         id="path2" />
    </g>
  </g>
</svg>
