<?xml version="1.0" encoding="UTF-8" standalone="no"?>
<!-- Created with Inkscape (http://www.inkscape.org/) -->

<svg
   width="960mm"
   height="540mm"
   viewBox="0 0 960 540"
   version="1.1"
   id="svg1"
   inkscape:version="1.4.3 (0d15f75042, 2025-12-25)"
   sodipodi:docname="banner.baked.svg"
   xmlns:inkscape="http://www.inkscape.org/namespaces/inkscape"
   xmlns:sodipodi="http://sodipodi.sourceforge.net/DTD/sodipodi-0.dtd"
   xmlns="http://www.w3.org/2000/svg"
   xmlns:svg="http://www.w3.org/2000/svg">
  <sodipodi:namedview
     id="namedview1"
     pagecolor="#ffffff"
     bordercolor="#000000"
     borderopacity="0.25"
     inkscape:showpageshadow="2"
     inkscape:pageopacity="0.0"
     inkscape:pagecheckerboard="0"
     inkscape:deskcolor="#d1d1d1"
     inkscape:document-units="mm"
     inkscape:zoom="0.30772188"
     inkscape:cx="1152.0143"
     inkscape:cy="770.17598"
     inkscape:window-width="2560"
     inkscape:window-height="1372"
     inkscape:window-x="0"
     inkscape:window-y="0"
     inkscape:window-maximized="1"
     inkscape:current-layer="layer1" />
  <defs
     id="defs1">
    <rect
       x="-120.23844"
       y="-16.248438"
       width="2141.5441"
       height="1345.3707"
       id="rect3" />
    <rect
       x="404.43663"
       y="492.47726"
       width="2811.7975"
       height="1227.0663"
       id="rect1" />
    <filter
       style="color-interpolation-filters:sRGB;"
       inkscape:label="Blur"
       id="filter8"
       x="-0.00013063867"
       y="-2.1843841"
       width="1.0002613"
       height="5.3687682">
      <feGaussianBlur
         stdDeviation="0.01 100"
         result="fbSourceGraphic"
         id="feGaussianBlur8" />
      <feColorMatrix
         result="fbSourceGraphicAlpha"
         in="fbSourceGraphic"
         values="0 0 0 -1 0 0 0 0 -1 0 0 0 0 -1 0 0 0 0 1 0"
         id="feColorMatrix8" />
      <feGaussianBlur
         id="feGaussianBlur9"
         stdDeviation="0.01 100"
         result="fbSourceGraphic"
         in="fbSourceGraphic" />
      <feColorMatrix
         result="fbSourceGraphicAlpha"
         in="fbSourceGraphic"
         values="0 0 0 -1 0 0 0 0 -1 0 0 0 0 -1 0 0 0 0 1 0"
         id="feColorMatrix9" />
      <feGaussianBlur
         id="feGaussianBlur10"
         stdDeviation="0.01 100"
         result="fbSourceGraphic"
         in="fbSourceGraphic" />
      <feColorMatrix
         result="fbSourceGraphicAlpha"
         in="fbSourceGraphic"
         values="0 0 0 -1 0 0 0 0 -1 0 0 0 0 -1 0 0 0 0 1 0"
         id="feColorMatrix10" />
      <feGaussianBlur
         id="feGaussianBlur11"
         stdDeviation="0.01 100"
         result="fbSourceGraphic"
         in="fbSourceGraphic" />
      <feColorMatrix
         result="fbSourceGraphicAlpha"
         in="fbSourceGraphic"
         values="0 0 0 -1 0 0 0 0 -1 0 0 0 0 -1 0 0 0 0 1 0"
         id="feColorMatrix11" />
      <feGaussianBlur
         id="feGaussianBlur12"
         stdDeviation="0.01 100"
         result="blur"
         in="fbSourceGraphic" />
    </filter>
    <filter
       style="color-interpolation-filters:sRGB;"
       inkscape:label="Blur"
       id="filter14"
       x="-0.11334525"
       y="-0.43300741"
       width="1.2266905"
       height="1.8660148">
      <feGaussianBlur
         stdDeviation="43.3812 99.1143"
         result="blur"
         id="feGaussianBlur14" />
    </filter>
  </defs>
  <g
     inkscape:label="Banner"
     inkscape:groupmode="layer"
     id="layer1">
    <rect
       style="display:inline;fill:#181825;fill-opacity:1;stroke-width:0.264583"
       id="rect2"
       width="960"
       height="540"
       x="0"
       y="-8.8817842e-16"
       inkscape:label="rect2" />
    <g
       id="text4"
       style="font-stretch:expanded;font-size:123.472px;font-family:'DINish Expanded';-inkscape-font-specification:'DINish Expanded, Expanded';fill:#cba6f7;stroke-width:0.264583;filter:url(#filter14)"
       transform="rotate(-30)"
       aria-label="workspaces&#10;preservation&#10;userbot&#10;tool asssistance">
      <path
         d="m -266.25991,258.9827 -21.82464,-63.18294 h 11.21376 l 16.15747,49.79876 17.36325,-49.79876 h 8.56105 l 17.48383,49.79876 16.03689,-49.79876 h 11.21376 l -21.82464,63.18294 h -10.36972 l -16.88093,-48.11068 -16.88094,48.11068 z m 113.22286,1.0852 q -13.50475,0 -21.34233,-7.59642 -7.717,-7.59642 -7.717,-22.0658 v -6.27006 q 0,-14.46938 7.717,-22.0658 7.83758,-7.59642 21.34233,-7.59642 13.62532,0 21.10117,7.717 7.59642,7.717 7.59642,21.94522 v 6.27006 q 0,14.46938 -7.59642,22.0658 -7.47585,7.59642 -21.10117,7.59642 z m -18.56903,-29.90338 q 0,20.61886 18.44845,20.61886 18.32787,0 18.32787,-20.61886 v -5.78775 q 0,-20.49828 -18.32787,-20.49828 -18.44845,0 -18.44845,20.49828 z m 61.97715,28.81818 v -63.18294 h 10.369717 v 8.8022 q 6.390641,-9.64625 20.136547,-9.64625 2.773297,0 5.064282,0.36174 v 10.00798 q -3.496766,-0.96462 -6.993532,-1.0852 -8.078734,0 -13.143015,4.9437 -4.943704,4.82313 -4.943704,13.38417 v 36.4146 z m 46.663725,0 v -85.24874 h 10.490297 v 54.019 l 31.470891,-31.9532 H -7.8610014 L -32.097205,219.91538 -4.4848139,258.9827 H -16.904361 l -22.427531,-31.83263 -13.143016,13.14302 v 18.68961 z m 92.362863,0.72347 q -12.419547,0 -19.5336563,-5.18486 -7.1141094,-5.30544 -7.1141094,-14.46938 V 239.6902 H 12.757877 v 0.24115 q 0,5.18486 4.220234,8.07874 4.340813,2.89387 12.901859,2.89387 7.837579,0 12.419547,-2.65272 4.581969,-2.65272 4.581969,-7.47584 0,-4.22023 -3.496765,-6.14948 -3.376188,-2.04983 -10.249141,-2.7733 l -9.04336,-1.0852 Q 13.601924,229.44106 8.6582205,225.3414 3.7145173,221.24174 3.7145173,213.64532 q 0,-8.8022 6.8729527,-13.7459 6.993532,-4.94371 18.810188,-4.94371 12.298969,0 19.2925,5.06428 7.114109,5.06428 7.114109,13.62533 v 0.48231 H 45.796283 v -0.36173 q 0,-5.06428 -4.220234,-7.717 -4.220235,-2.65272 -12.057813,-2.65272 -8.078734,0 -11.937234,2.53214 -3.8585,2.53214 -3.8585,6.99353 0,3.8585 2.652718,6.02891 2.773297,2.04983 10.007985,2.7733 l 9.525672,1.20578 q 10.731453,1.20578 15.795734,5.42601 5.18486,4.22024 5.18486,11.81666 0,9.28451 -7.355266,14.46937 -7.355266,5.06429 -20.136547,5.06429 z m 40.273093,19.2925 V 195.79976 H 80.04047 v 8.44047 q 3.135031,-4.46139 8.199312,-6.99353 5.18486,-2.65272 11.937238,-2.65272 11.93723,0 19.17192,7.59642 7.23469,7.59642 7.23469,21.70406 v 6.6318 q 0,14.3488 -7.35527,21.94522 -7.23469,7.59642 -19.05134,7.59642 -13.625331,0 -20.015972,-9.28452 v 28.21529 z m 10.490297,-47.38721 q 0,8.80221 4.943703,13.98706 5.064281,5.18486 13.50475,5.18486 8.319889,0 12.901859,-5.18486 4.58197,-5.30543 4.58197,-15.55457 v -5.5466 q 0,-10.24914 -4.58197,-15.434 -4.58197,-5.18486 -13.143015,-5.18486 -8.440469,0 -13.384172,5.30544 -4.823125,5.18486 -4.823125,14.10764 z m 81.390212,28.09471 q -11.33434,0 -17.48383,-4.94371 -6.0289,-4.9437 -6.0289,-14.10764 0,-8.92278 6.14948,-13.62533 6.14949,-4.70254 18.08672,-4.70254 h 19.65424 v -4.34082 q 0,-14.34879 -16.76036,-14.34879 -7.23469,0 -11.09319,2.77329 -3.73792,2.65272 -3.73792,7.59643 v 0.36173 h -10.24914 v -0.36173 q 0,-8.92279 6.63179,-13.98707 6.75238,-5.06428 18.32788,-5.06428 13.26359,0 20.25712,5.90833 7.11411,5.90833 7.11411,16.88094 v 41.23772 h -10.24914 v -7.11411 q -6.51122,7.95815 -20.61886,7.83758 z m -13.14301,-19.17193 q 0,10.61088 15.19284,10.61088 9.28452,0 13.74591,-3.8585 4.58197,-3.97908 4.58197,-12.17839 v -4.94371 h -17.96615 q -8.07873,0 -11.81665,2.53215 -3.73792,2.53214 -3.73792,7.83757 z m 87.66031,19.53366 q -13.86648,0 -21.46291,-7.59642 -7.59642,-7.717 -7.59642,-22.0658 v -6.27006 q 0,-14.3488 7.59642,-21.94522 7.717,-7.717 21.34233,-7.717 12.54013,0 19.53366,6.14948 6.99353,6.14949 6.99353,16.88094 v 0.60289 h -10.24914 v -0.60289 q 0,-6.39064 -4.22024,-10.00798 -4.09965,-3.61735 -11.93723,-3.61735 -18.56903,0 -18.56903,20.49828 v 5.78775 q 0,20.61886 18.56903,20.61886 7.717,0 11.93723,-3.49676 4.22024,-3.49677 4.22024,-9.88741 v -0.48231 h 10.24914 v 0.48231 q 0,10.61088 -6.99353,16.63978 -6.99353,6.02891 -19.41308,6.02891 z m 68.60896,0 q -13.86649,0 -21.70407,-7.717 -7.717,-7.717 -7.717,-22.54811 v -5.06428 q 0,-14.71053 7.47585,-22.42753 7.47584,-7.83758 20.61886,-7.83758 13.02244,0 20.3777,7.23469 7.35527,7.23468 7.35527,20.86001 v 7.35527 h -45.33738 v 0.48231 q 0,20.49828 19.17192,20.49828 7.11411,0 11.21377,-3.25561 4.09966,-3.37618 4.22023,-8.68162 v -0.36174 h 10.36972 v 0.48232 q -0.12058,6.0289 -3.49676,10.85203 -3.25561,4.70254 -9.04336,7.47584 -5.78775,2.65272 -13.50475,2.65272 z m -18.93077,-37.98211 h 34.84708 v -1.0852 q 0,-8.56105 -4.58197,-12.90186 -4.46139,-4.34081 -12.6607,-4.34081 -8.07874,0 -12.90186,4.58196 -4.70255,4.46139 -4.70255,13.62533 z m 83.68124,37.62038 q -12.41954,0 -19.53365,-5.18486 -7.11411,-5.30544 -7.11411,-14.46938 v -0.36173 h 10.00798 v 0.24115 q 0,5.18486 4.22024,8.07874 4.34081,2.89387 12.90185,2.89387 7.83758,0 12.41955,-2.65272 4.58197,-2.65272 4.58197,-7.47584 0,-4.22023 -3.49677,-6.14948 -3.37618,-2.04983 -10.24914,-2.7733 l -9.04336,-1.0852 q -10.49029,-1.32636 -15.434,-5.42602 -4.9437,-4.09966 -4.9437,-11.69608 0,-8.8022 6.87295,-13.7459 6.99354,-4.94371 18.81019,-4.94371 12.29897,0 19.2925,5.06428 7.11411,5.06428 7.11411,13.62533 v 0.48231 h -10.00798 v -0.36173 q 0,-5.06428 -4.22024,-7.717 -4.22023,-2.65272 -12.05781,-2.65272 -8.07873,0 -11.93723,2.53214 -3.8585,2.53214 -3.8585,6.99353 0,3.8585 2.65271,6.02891 2.7733,2.04983 10.00799,2.7733 l 9.52567,1.20578 q 10.73145,1.20578 15.79574,5.42601 5.18485,4.22024 5.18485,11.81666 0,9.28451 -7.35526,14.46937 -7.35527,5.06429 -20.13655,5.06429 z"
         id="path3" />
      <path
         d="m -281.33218,433.33867 v -83.19891 h 10.36972 v 8.44047 q 3.13503,-4.46139 8.19931,-6.99353 5.18486,-2.65272 11.93724,-2.65272 11.93723,0 19.17192,7.59642 7.23469,7.59642 7.23469,21.70406 v 6.6318 q 0,14.3488 -7.35527,21.94522 -7.23469,7.59642 -19.05134,7.59642 -13.62533,0 -20.01597,-9.28452 v 28.21529 z m 10.4903,-47.38721 q 0,8.80221 4.9437,13.98706 5.06428,5.18486 13.50475,5.18486 8.31989,0 12.90186,-5.18486 4.58197,-5.30543 4.58197,-15.55457 v -5.5466 q 0,-10.24914 -4.58197,-15.434 -4.58197,-5.18486 -13.14301,-5.18486 -8.44047,0 -13.38418,5.30544 -4.82312,5.18486 -4.82312,14.10764 z m 61.01253,27.37124 v -63.18294 h 10.36972 v 8.8022 q 6.39064,-9.64625 20.13655,-9.64625 2.77329,0 5.06428,0.36174 v 10.00798 q -3.49677,-0.96462 -6.99353,-1.0852 -8.07874,0 -13.14302,4.9437 -4.9437,4.82313 -4.9437,13.38417 v 36.4146 z m 74.15555,1.0852 q -13.86649,0 -21.70406,-7.717 -7.717,-7.717 -7.717,-22.54811 v -5.06428 q 0,-14.71053 7.47584,-22.42753 7.47584,-7.83758 20.61886,-7.83758 13.02244,0 20.3777,7.23469 7.35527,7.23468 7.35527,20.86001 v 7.35527 h -45.33738 v 0.48231 q 0,20.49828 19.17193,20.49828 7.1141,0 11.21376,-3.25561 4.09966,-3.37618 4.22024,-8.68162 v -0.36174 h 10.36971 v 0.48232 q -0.12057,6.0289 -3.49676,10.85203 -3.25561,4.70254 -9.04336,7.47584 -5.78775,2.65272 -13.50475,2.65272 z m -18.93077,-37.98211 h 34.84708 v -1.0852 q 0,-8.56105 -4.58197,-12.90186 -4.46139,-4.34081 -12.6607,-4.34081 -8.07873,0 -12.90186,4.58196 -4.70255,4.46139 -4.70255,13.62533 z m 83.681214,37.62038 q -12.419547,0 -19.533657,-5.18486 -7.114109,-5.30544 -7.114109,-14.46938 v -0.36173 h 10.007984 v 0.24115 q 0,5.18486 4.220235,8.07874 4.340812,2.89387 12.901859,2.89387 7.837578,0 12.419547,-2.65272 4.581969,-2.65272 4.581969,-7.47584 0,-4.22023 -3.496766,-6.14948 -3.376187,-2.04983 -10.249141,-2.7733 l -9.043359,-1.0852 q -10.490297,-1.32636 -15.434,-5.42602 -4.943703,-4.09966 -4.943703,-11.69608 0,-8.8022 6.872953,-13.7459 6.993531,-4.94371 18.810188,-4.94371 12.298968,0 19.2925,5.06428 7.114109,5.06428 7.114109,13.62533 v 0.48231 h -10.007984 v -0.36173 q 0,-5.06428 -4.220235,-7.717 -4.220234,-2.65272 -12.057812,-2.65272 -8.078735,0 -11.937235,2.53214 -3.8585,2.53214 -3.8585,6.99353 0,3.8585 2.652719,6.02891 2.773297,2.04983 10.007984,2.7733 l 9.525672,1.20578 q 10.731453,1.20578 15.795735,5.42601 5.184859,4.22024 5.184859,11.81666 0,9.28451 -7.355266,14.46937 -7.355265,5.06429 -20.136546,5.06429 z m 67.7649054,0.36173 q -13.8664844,0 -21.7040624,-7.717 -7.717,-7.717 -7.717,-22.54811 v -5.06428 q 0,-14.71053 7.475844,-22.42753 7.475843,-7.83758 20.618859,-7.83758 13.0224375,0 20.377703,7.23469 7.355266,7.23468 7.355266,20.86001 v 7.35527 h -45.337375 v 0.48231 q 0,20.49828 19.1719216,20.49828 7.1141094,0 11.2137656,-3.25561 4.0996558,-3.37618 4.2202348,-8.68162 v -0.36174 h 10.369718 v 0.48232 q -0.120578,6.0289 -3.496765,10.85203 -3.25561,4.70254 -9.04336,7.47584 -5.7877496,2.65272 -13.5047496,2.65272 z M -22.089216,376.42579 h 34.847078 v -1.0852 q 0,-8.56105 -4.5819689,-12.90186 -4.4613906,-4.34081 -12.6607031,-4.34081 -8.078734,0 -12.901859,4.58196 -4.702547,4.46139 -4.702547,13.62533 z M 38.07926,413.3227 v -63.18294 h 10.369718 v 8.8022 q 6.390641,-9.64625 20.136547,-9.64625 2.773297,0 5.064281,0.36174 v 10.00798 q -3.496765,-0.96462 -6.993531,-1.0852 -8.078734,0 -13.143015,4.9437 -4.943704,4.82313 -4.943704,13.38417 v 36.4146 z m 64.87105,0 -24.959668,-63.18294 h 11.213765 l 18.930763,50.03992 18.81019,-50.03992 h 11.21377 l -24.95968,63.18294 z m 65.47391,0.72347 q -11.33435,0 -17.48383,-4.94371 -6.02891,-4.9437 -6.02891,-14.10764 0,-8.92278 6.14949,-13.62533 6.14948,-4.70254 18.08672,-4.70254 h 19.65423 v -4.34082 q 0,-14.34879 -16.76036,-14.34879 -7.23469,0 -11.09319,2.77329 -3.73792,2.65272 -3.73792,7.59643 v 0.36173 h -10.24914 v -0.36173 q 0,-8.92279 6.6318,-13.98707 6.75237,-5.06428 18.32787,-5.06428 13.2636,0 20.25713,5.90833 7.11411,5.90833 7.11411,16.88094 v 41.23772 h -10.24914 v -7.11411 q -6.51122,7.95815 -20.61886,7.83758 z M 155.2812,394.87424 q 0,10.61088 15.19285,10.61088 9.28451,0 13.7459,-3.8585 4.58197,-3.97908 4.58197,-12.17839 v -4.94371 h -17.96614 q -8.07873,0 -11.81666,2.53215 -3.73792,2.53214 -3.73792,7.83757 z m 86.0928,18.44846 q -18.93077,0 -18.93077,-18.2073 v -37.13806 h -11.09318 v -7.83758 h 11.09318 v -13.74591 l 10.4903,-4.34081 v 18.08672 h 16.76036 v 7.83758 h -16.76036 v 36.53517 q 0,5.30544 2.41156,7.47584 2.41157,2.17041 7.717,2.17041 h 5.30544 v 9.16394 z m 22.54809,0 v -63.18294 h 10.49029 v 63.18294 z m 0,-73.67324 v -11.45492 h 10.49029 v 11.45492 z m 55.1042,74.75844 q -13.50475,0 -21.34232,-7.59642 -7.717,-7.59642 -7.717,-22.0658 v -6.27006 q 0,-14.46938 7.717,-22.0658 7.83757,-7.59642 21.34232,-7.59642 13.62533,0 21.10118,7.717 7.59642,7.717 7.59642,21.94522 v 6.27006 q 0,14.46938 -7.59642,22.0658 -7.47585,7.59642 -21.10118,7.59642 z m -18.56903,-29.90338 q 0,20.61886 18.44846,20.61886 18.32787,0 18.32787,-20.61886 v -5.78775 q 0,-20.49828 -18.32787,-20.49828 -18.44846,0 -18.44846,20.49828 z m 61.97716,28.81818 v -63.18294 h 10.36972 v 8.44047 q 6.87295,-9.16394 20.13655,-9.16394 11.21376,0 17.36325,6.39064 6.14948,6.27006 6.14948,17.72499 v 39.79078 h -10.49029 v -38.34385 q 0,-16.27804 -15.67516,-16.27804 -7.95816,0 -12.6607,4.70254 -4.70255,4.70255 -4.70255,12.90186 v 37.01749 z"
         id="path4" />
      <path
         d="m -254.44326,568.50674 q -13.14301,0 -20.01597,-6.75237 -6.87295,-6.75238 -6.87295,-19.17192 v -38.10269 h 10.4903 v 37.01748 q 0,17.60441 16.5192,17.60441 8.56105,0 12.54013,-4.34081 3.97907,-4.46139 3.97907,-13.2636 v -37.01748 h 10.4903 v 38.10269 q 0,12.41954 -6.99353,19.17192 -6.87295,6.75237 -20.13655,6.75237 z m 67.16202,-0.12057 q -12.41955,0 -19.53366,-5.18486 -7.11411,-5.30544 -7.11411,-14.46938 v -0.36173 h 10.00799 v 0.24115 q 0,5.18486 4.22023,8.07874 4.34081,2.89387 12.90186,2.89387 7.83758,0 12.41955,-2.65272 4.58196,-2.65272 4.58196,-7.47584 0,-4.22023 -3.49676,-6.14948 -3.37619,-2.04983 -10.24914,-2.7733 l -9.04336,-1.0852 q -10.4903,-1.32636 -15.434,-5.42602 -4.9437,-4.09966 -4.9437,-11.69608 0,-8.8022 6.87295,-13.7459 6.99353,-4.94371 18.81019,-4.94371 12.29897,0 19.2925,5.06428 7.11411,5.06428 7.11411,13.62533 v 0.48231 h -10.00799 v -0.36173 q 0,-5.06428 -4.22023,-7.717 -4.22024,-2.65272 -12.05782,-2.65272 -8.07873,0 -11.93723,2.53214 -3.8585,2.53214 -3.8585,6.99353 0,3.8585 2.65272,6.02891 2.7733,2.04983 10.00798,2.7733 l 9.52568,1.20578 q 10.73145,1.20578 15.79573,5.42601 5.18486,4.22024 5.18486,11.81666 0,9.28451 -7.35527,14.46937 -7.35526,5.06429 -20.13654,5.06429 z m 67.76491,0.36173 q -13.86648,0 -21.70406,-7.717 -7.717,-7.717 -7.717,-22.54811 v -5.06428 q 0,-14.71053 7.47584,-22.42753 7.47584,-7.83758 20.61886,-7.83758 13.02244,0 20.3777,7.23469 7.355269,7.23468 7.355269,20.86001 v 7.35527 H -138.4471 v 0.48231 q 0,20.49828 19.17193,20.49828 7.11411,0 11.21376,-3.25561 4.09966,-3.37618 4.22024,-8.68162 v -0.36174 h 10.369715 v 0.48232 q -0.120578,6.0289 -3.496766,10.85203 -3.255609,4.70254 -9.043359,7.47584 -5.78775,2.65272 -13.50475,2.65272 z m -18.93077,-37.98211 h 34.84708 v -1.0852 q 0,-8.56105 -4.58197,-12.90186 -4.46139,-4.34081 -12.6607,-4.34081 -8.07873,0 -12.90186,4.58196 -4.70255,4.46139 -4.70255,13.62533 z m 60.16848,36.89691 v -63.18294 h 10.369719 v 8.8022 q 6.39064,-9.64625 20.136547,-9.64625 2.773296,0 5.064281,0.36174 v 10.00798 q -3.496766,-0.96462 -6.993531,-1.0852 -8.078735,0 -13.143016,4.9437 -4.943703,4.82313 -4.943703,13.38417 v 36.4146 z m 77.1699924,1.0852 q -13.8664844,0 -20.1365474,-9.28452 v 8.19932 h -10.369718 v -85.24874 h 10.490297 v 30.50627 q 3.014453,-4.46139 8.078734,-7.11411 5.0642812,-2.65272 11.9372344,-2.65272 12.0578126,0 19.1719216,7.717 7.234688,7.717 7.234688,21.70406 v 6.6318 q 0,14.3488 -7.355266,21.94522 -7.234687,7.59642 -19.0513436,7.59642 z M -21.124596,540.29146 q 0,8.80221 4.943703,13.98706 5.064281,5.18486 13.5047497,5.18486 8.3198907,0 12.9018593,-5.18486 4.581969,-5.30543 4.581969,-15.55457 v -5.66718 q 0,-10.36971 -4.581969,-15.434 -4.5819686,-5.06428 -13.1430155,-5.06428 -8.4404685,0 -13.3841715,5.30544 -4.823125,5.18486 -4.823125,14.10764 z m 88.142619,28.45644 q -13.50475,0 -21.342328,-7.59642 -7.717,-7.59642 -7.717,-22.0658 v -6.27006 q 0,-14.46938 7.717,-22.0658 7.837578,-7.59642 21.342328,-7.59642 13.625328,0 21.101172,7.717 7.596422,7.717 7.596422,21.94522 v 6.27006 q 0,14.46938 -7.596422,22.0658 -7.475844,7.59642 -21.101172,7.59642 z M 48.448992,538.84452 q 0,20.61886 18.448453,20.61886 18.327875,0 18.327875,-20.61886 v -5.78775 q 0,-20.49828 -18.327875,-20.49828 -18.448453,0 -18.448453,20.49828 z m 87.539728,28.81818 q -18.93077,0 -18.93077,-18.2073 v -37.13806 h -11.09319 v -7.83758 h 11.09319 v -13.74591 l 10.4903,-4.34081 v 18.08672 h 16.76036 v 7.83758 h -16.76036 v 36.53517 q 0,5.30544 2.41156,7.47584 2.41156,2.17041 7.717,2.17041 h 5.30544 v 9.16394 z"
         id="path5" />
      <path
         d="m -255.76962,722.0027 q -18.93076,0 -18.93076,-18.2073 v -37.13806 h -11.09319 v -7.83758 h 11.09319 v -13.74591 l 10.4903,-4.34081 v 18.08672 h 16.76035 v 7.83758 h -16.76035 v 36.53517 q 0,5.30544 2.41156,7.47584 2.41156,2.17041 7.717,2.17041 h 5.30544 v 9.16394 z m 48.83414,1.0852 q -13.50475,0 -21.34232,-7.59642 -7.717,-7.59642 -7.717,-22.0658 v -6.27006 q 0,-14.46938 7.717,-22.0658 7.83757,-7.59642 21.34232,-7.59642 13.62533,0 21.10118,7.717 7.59642,7.717 7.59642,21.94522 v 6.27006 q 0,14.46938 -7.59642,22.0658 -7.47585,7.59642 -21.10118,7.59642 z m -18.56903,-29.90337 q 0,20.61885 18.44846,20.61885 18.32787,0 18.32787,-20.61885 v -5.78775 q 0,-20.49829 -18.32787,-20.49829 -18.44846,0 -18.44846,20.49829 z m 89.10723,29.90337 q -13.50475,0 -21.34232,-7.59642 -7.717,-7.59642 -7.717,-22.0658 v -6.27006 q 0,-14.46938 7.717,-22.0658 7.83757,-7.59642 21.34232,-7.59642 13.62533,0 21.10118,7.717 7.59642,7.717 7.59642,21.94522 v 6.27006 q 0,14.46938 -7.59642,22.0658 -7.47585,7.59642 -21.10118,7.59642 z m -18.56903,-29.90337 q 0,20.61885 18.44846,20.61885 18.32787,0 18.32787,-20.61885 v -5.78775 q 0,-20.49829 -18.32787,-20.49829 -18.44846,0 -18.44846,20.49829 z m 81.269649,28.81817 q -9.887406,0 -14.589953,-4.58197 -4.702547,-4.58197 -4.702547,-14.46938 v -66.19739 h 10.490297 v 65.5945 q 0,5.5466 2.290984,7.95816 2.411563,2.29098 7.958157,2.29098 h 5.426015 v 9.4051 z m 65.1121961,0.72347 q -11.3343441,0 -17.4838281,-4.94371 -6.028906,-4.9437 -6.028906,-14.10764 0,-8.92278 6.149484,-13.62533 6.149484,-4.70254 18.0867188,-4.70254 H 11.793238 v -4.34082 q 0,-14.34879 -16.7603592,-14.34879 -7.2346878,0 -11.0931878,2.77329 -3.737922,2.65272 -3.737922,7.59643 v 0.36173 h -10.24914 v -0.36173 q 0,-8.92278 6.631797,-13.98707 6.752375,-5.06428 18.3278747,-5.06428 13.2635938,0 20.2571253,5.90833 7.114109,5.90833 7.114109,16.88094 V 722.0027 H 12.034394 v -7.11411 q -6.5112183,7.95815 -20.6188589,7.83758 z M -21.727481,703.55424 q 0,10.61088 15.1928442,10.61088 9.2845156,0 13.7459063,-3.8585 4.5819685,-3.97908 4.5819685,-12.17839 v -4.9437 H -6.1729024 q -8.0787346,0 -11.8166566,2.53214 -3.737922,2.53214 -3.737922,7.83757 z m 84.042955,19.17193 q -12.419547,0 -19.533656,-5.18486 -7.114109,-5.30544 -7.114109,-14.46938 v -0.36173 h 10.007984 v 0.24115 q 0,5.18486 4.220234,8.07874 4.340813,2.89387 12.90186,2.89387 7.837578,0 12.419547,-2.65272 4.581968,-2.65271 4.581968,-7.47584 0,-4.22023 -3.496765,-6.14948 -3.376188,-2.04983 -10.249141,-2.7733 l -9.043359,-1.0852 q -10.490297,-1.32636 -15.434,-5.42602 -4.943703,-4.09966 -4.943703,-11.69608 0,-8.8022 6.872953,-13.7459 6.993531,-4.94371 18.810187,-4.94371 12.298969,0 19.2925,5.06428 7.11411,5.06429 7.11411,13.62533 v 0.48231 H 78.714099 v -0.36173 q 0,-5.06428 -4.220234,-7.717 -4.220235,-2.65272 -12.057813,-2.65272 -8.078734,0 -11.937234,2.53214 -3.8585,2.53214 -3.8585,6.99353 0,3.8585 2.652719,6.02891 2.773297,2.04983 10.007984,2.7733 l 9.525672,1.20578 q 10.731453,1.20578 15.795734,5.42601 5.18486,4.22024 5.18486,11.81666 0,9.28452 -7.355266,14.46937 -7.355266,5.06429 -20.136547,5.06429 z m 63.785826,0 q -12.41955,0 -19.53365,-5.18486 -7.114114,-5.30544 -7.114114,-14.46938 v -0.36173 h 10.007984 v 0.24115 q 0,5.18486 4.22023,8.07874 4.34082,2.89387 12.90186,2.89387 7.83758,0 12.41955,-2.65272 4.58197,-2.65271 4.58197,-7.47584 0,-4.22023 -3.49677,-6.14948 -3.37618,-2.04983 -10.24914,-2.7733 l -9.04336,-1.0852 q -10.49029,-1.32636 -15.434,-5.42602 -4.9437,-4.09966 -4.9437,-11.69608 0,-8.8022 6.87295,-13.7459 6.99354,-4.94371 18.81019,-4.94371 12.29897,0 19.2925,5.06428 7.11411,5.06429 7.11411,13.62533 v 0.48231 h -10.00798 v -0.36173 q 0,-5.06428 -4.22024,-7.717 -4.22023,-2.65272 -12.05781,-2.65272 -8.07873,0 -11.93723,2.53214 -3.8585,2.53214 -3.8585,6.99353 0,3.8585 2.65271,6.02891 2.7733,2.04983 10.00799,2.7733 l 9.52567,1.20578 q 10.73145,1.20578 15.79573,5.42601 5.18486,4.22024 5.18486,11.81666 0,9.28452 -7.35526,14.46937 -7.35527,5.06429 -20.13655,5.06429 z m 63.78583,0 q -12.41955,0 -19.53366,-5.18486 -7.11411,-5.30544 -7.11411,-14.46938 v -0.36173 h 10.00799 v 0.24115 q 0,5.18486 4.22023,8.07874 4.34082,2.89387 12.90186,2.89387 7.83758,0 12.41955,-2.65272 4.58197,-2.65271 4.58197,-7.47584 0,-4.22023 -3.49677,-6.14948 -3.37619,-2.04983 -10.24914,-2.7733 l -9.04336,-1.0852 q -10.49029,-1.32636 -15.434,-5.42602 -4.9437,-4.09966 -4.9437,-11.69608 0,-8.8022 6.87295,-13.7459 6.99353,-4.94371 18.81019,-4.94371 12.29897,0 19.2925,5.06428 7.11411,5.06429 7.11411,13.62533 v 0.48231 h -10.00799 v -0.36173 q 0,-5.06428 -4.22023,-7.717 -4.22023,-2.65272 -12.05781,-2.65272 -8.07874,0 -11.93724,2.53214 -3.8585,2.53214 -3.8585,6.99353 0,3.8585 2.65272,6.02891 2.7733,2.04983 10.00799,2.7733 l 9.52567,1.20578 q 10.73145,1.20578 15.79573,5.42601 5.18486,4.22024 5.18486,11.81666 0,9.28452 -7.35526,14.46937 -7.35527,5.06429 -20.13655,5.06429 z m 41.11714,-0.72347 v -63.18294 h 10.4903 v 63.18294 z m 0,-73.67324 v -11.45492 h 10.4903 v 11.45492 z m 51.48683,74.39671 q -12.41954,0 -19.53365,-5.18486 -7.11411,-5.30544 -7.11411,-14.46938 v -0.36173 h 10.00798 v 0.24115 q 0,5.18486 4.22024,8.07874 4.34081,2.89387 12.90186,2.89387 7.83757,0 12.41954,-2.65272 4.58197,-2.65271 4.58197,-7.47584 0,-4.22023 -3.49676,-6.14948 -3.37619,-2.04983 -10.24915,-2.7733 l -9.04335,-1.0852 q -10.4903,-1.32636 -15.434,-5.42602 -4.94371,-4.09966 -4.94371,-11.69608 0,-8.8022 6.87296,-13.7459 6.99353,-4.94371 18.81018,-4.94371 12.29897,0 19.2925,5.06428 7.11411,5.06429 7.11411,13.62533 v 0.48231 h -10.00798 v -0.36173 q 0,-5.06428 -4.22024,-7.717 -4.22023,-2.65272 -12.05781,-2.65272 -8.07873,0 -11.93723,2.53214 -3.8585,2.53214 -3.8585,6.99353 0,3.8585 2.65272,6.02891 2.77329,2.04983 10.00798,2.7733 l 9.52567,1.20578 q 10.73145,1.20578 15.79574,5.42601 5.18486,4.22024 5.18486,11.81666 0,9.28452 -7.35527,14.46937 -7.35527,5.06429 -20.13655,5.06429 z m 65.83566,-0.72347 q -18.93077,0 -18.93077,-18.2073 v -37.13806 h -11.09318 v -7.83758 h 11.09318 v -13.74591 l 10.4903,-4.34081 v 18.08672 h 16.76036 v 7.83758 h -16.76036 v 36.53517 q 0,5.30544 2.41156,7.47584 2.41156,2.17041 7.717,2.17041 h 5.30544 v 9.16394 z m 42.0818,0.72347 q -11.33434,0 -17.48383,-4.94371 -6.0289,-4.9437 -6.0289,-14.10764 0,-8.92278 6.14948,-13.62533 6.14949,-4.70254 18.08672,-4.70254 h 19.65423 v -4.34082 q 0,-14.34879 -16.76035,-14.34879 -7.23469,0 -11.09319,2.77329 -3.73792,2.65272 -3.73792,7.59643 v 0.36173 h -10.24914 v -0.36173 q 0,-8.92278 6.63179,-13.98707 6.75238,-5.06428 18.32788,-5.06428 13.26359,0 20.25712,5.90833 7.11411,5.90833 7.11411,16.88094 v 41.23772 h -10.24914 v -7.11411 q -6.51122,7.95815 -20.61886,7.83758 z m -13.14301,-19.17193 q 0,10.61088 15.19284,10.61088 9.28452,0 13.74591,-3.8585 4.58196,-3.97908 4.58196,-12.17839 v -4.9437 h -17.96614 q -8.07873,0 -11.81665,2.53214 -3.73792,2.53214 -3.73792,7.83757 z m 60.5302,18.44846 v -63.18294 h 10.36972 v 8.44047 q 6.87295,-9.16394 20.13655,-9.16394 11.21376,0 17.36325,6.39064 6.14948,6.27006 6.14948,17.72499 v 39.79078 h -10.4903 v -38.34385 q 0,-16.27804 -15.67515,-16.27804 -7.95816,0 -12.66071,4.70254 -4.70254,4.70255 -4.70254,12.90186 v 37.01749 z m 97.66829,1.0852 q -13.86649,0 -21.46291,-7.59642 -7.59642,-7.717 -7.59642,-22.0658 v -6.27006 q 0,-14.3488 7.59642,-21.94522 7.717,-7.717 21.34233,-7.717 12.54012,0 19.53366,6.14948 6.99353,6.14949 6.99353,16.88094 v 0.60289 h -10.24914 v -0.60289 q 0,-6.39064 -4.22024,-10.00798 -4.09965,-3.61735 -11.93723,-3.61735 -18.56903,0 -18.56903,20.49829 v 5.78775 q 0,20.61885 18.56903,20.61885 7.717,0 11.93723,-3.49676 4.22024,-3.49677 4.22024,-9.88741 v -0.48231 h 10.24914 v 0.48231 q 0,10.61088 -6.99353,16.63978 -6.99354,6.02891 -19.41308,6.02891 z m 68.60892,0 q -13.86648,0 -21.70406,-7.717 -7.717,-7.717 -7.717,-22.54811 v -5.06428 q 0,-14.71053 7.47585,-22.42753 7.47584,-7.83758 20.61885,-7.83758 13.02244,0 20.37771,7.23469 7.35526,7.23469 7.35526,20.86001 v 7.35527 H 585.1422 v 0.48231 q 0,20.49828 19.17192,20.49828 7.11411,0 11.21377,-3.25561 4.09965,-3.37618 4.22023,-8.68162 v -0.36174 h 10.36972 v 0.48232 q -0.12058,6.0289 -3.49677,10.85203 -3.25561,4.70254 -9.04336,7.47584 -5.78775,2.65272 -13.50475,2.65272 z M 585.1422,685.10579 h 34.84708 v -1.0852 q 0,-8.56105 -4.58197,-12.90186 -4.46139,-4.34081 -12.66071,-4.34081 -8.07873,0 -12.90185,4.58196 -4.70255,4.4614 -4.70255,13.62533 z"
         id="path6" />
    </g>
    <g
       id="text1"
       style="font-stretch:expanded;font-size:466.667px;font-family:'DINish Expanded';-inkscape-font-specification:'DINish Expanded, Expanded';white-space:pre;fill:#cdd6f4"
       inkscape:label="Text"
       transform="matrix(0.26458333,0,0,0.26458333,68.53207,-10.704745)"
       aria-label="ctfd-autorouter">
      <path
         d="m 538.42197,932.41562 q -52.40889,0 -81.11985,-28.71096 -28.71096,-29.16669 -28.71096,-83.3985 v -23.69793 q 0,-54.23181 28.71096,-82.94277 29.16669,-29.16668 80.66412,-29.16668 47.39587,0 73.82818,23.2422 26.43231,23.24221 26.43231,63.80213 v 2.27865 h -38.73701 v -2.27865 q 0,-24.15366 -15.95053,-37.82555 -15.49481,-13.67188 -45.11722,-13.67188 -70.18234,0 -70.18234,77.47401 v 21.87502 q 0,77.92974 70.18234,77.92974 29.16669,0 45.11722,-13.21616 15.95053,-13.21615 15.95053,-37.36982 v -1.82291 h 38.73701 v 1.82291 q 0,40.1042 -26.43231,62.89067 -26.43231,22.78648 -73.37245,22.78648 z m 252.01842,-4.10157 q -71.54953,0 -71.54953,-68.81515 V 719.13422 H 676.96375 V 689.5118 h 41.92711 v -51.95316 l 39.64846,-16.40626 v 68.35942 h 63.3464 v 29.62242 h -63.3464 v 138.08603 q 0,20.0521 9.11459,28.25523 9.11459,8.20313 29.16669,8.20313 h 20.0521 v 34.63544 z m 105.27352,0 V 719.13422 H 861.98992 V 689.5118 h 33.72399 v -16.86199 q 0,-32.35679 18.22917,-49.21878 18.22918,-17.31772 52.4089,-17.31772 h 28.71095 v 29.62241 h -21.87501 q -19.59637,0 -28.71096,8.65886 -9.11459,8.20313 -9.11459,26.88804 v 18.22918 h 59.70056 v 29.62242 h -59.70056 v 209.17983 z m 237.89079,4.10157 q -45.5729,0 -72.461,-28.71096 -26.4323,-28.71096 -26.4323,-82.03131 v -25.97658 q 0,-52.86462 26.4323,-82.03131 26.8881,-29.16668 71.5495,-29.16668 25.5209,0 45.573,9.57032 20.5078,9.57032 31.9011,26.88804 V 606.11331 h 39.1927 v 322.20074 h -39.1927 v -31.44533 q -24.6094,35.5469 -76.5626,35.5469 z m -59.2448,-113.02091 q 0,38.737 17.3177,58.33337 17.7734,19.59637 49.6745,19.59637 32.3568,0 50.586,-19.59637 18.2292,-19.59637 18.2292,-52.86462 v -31.44534 q 0,-34.17971 -18.685,-53.77607 -18.2291,-19.59637 -50.5859,-19.59637 -32.3568,0 -49.6745,19.59637 -16.862,19.59636 -16.862,58.33337 z m 230.5991,-33.72399 v -37.82554 h 148.5678 v 37.82554 z"
         id="path1" />
      <path
         d="m 512.90112,1514.3822 q -42.83857,0 -66.08078,-18.6849 -22.78647,-18.6849 -22.78647,-53.3204 0,-33.724 23.2422,-51.4974 23.24221,-17.7735 68.35942,-17.7735 h 74.28391 v -16.4062 q 0,-54.2318 -63.3464,-54.2318 -27.34377,0 -41.92711,10.4817 -14.12761,10.0261 -14.12761,28.711 v 1.3672 h -38.73701 v -1.3672 q 0,-33.724 25.06512,-52.8646 25.52085,-19.1407 69.27088,-19.1407 50.13025,0 76.56256,22.3308 26.88804,22.3307 26.88804,63.8021 v 155.8595 h -38.73701 v -26.888 q -24.60939,30.0781 -77.92974,29.6224 z m -49.67452,-72.461 q 0,40.1042 57.42192,40.1042 35.09117,0 51.95316,-14.5834 17.31772,-15.039 17.31772,-46.0286 v -18.685 h -67.90369 q -30.53388,0 -44.66149,9.5704 -14.12762,9.5703 -14.12762,29.6224 z m 330.40387,72.9167 q -49.67451,0 -75.65109,-25.5209 -25.97658,-25.5208 -25.97658,-72.4609 v -144.0106 h 39.64846 v 139.909 q 0,66.5365 62.43494,66.5365 32.3568,0 47.39587,-16.4063 15.03907,-16.862 15.03907,-50.1302 v -139.909 h 39.64847 v 144.0106 q 0,46.9401 -26.43231,72.4609 -25.97658,25.5209 -76.10683,25.5209 z m 261.58873,-3.1901 q -71.54956,0 -71.54956,-68.8152 V 1302.468 h -41.92712 v -29.6225 h 41.92712 v -51.9531 l 39.64846,-16.4063 v 68.3594 h 63.3464 v 29.6225 h -63.3464 v 138.086 q 0,20.0521 9.1146,28.2552 9.1146,8.2032 29.1667,8.2032 h 20.0521 v 34.6354 z m 184.5704,4.1016 q -51.0417,0 -80.6641,-28.711 -29.1667,-28.711 -29.1667,-83.3985 v -23.6979 q 0,-54.6876 29.1667,-83.3985 29.6224,-28.711 80.6641,-28.711 51.4975,0 79.7527,29.1667 28.711,29.1667 28.711,82.9428 v 23.6979 q 0,54.6875 -28.711,83.3985 -28.2552,28.711 -79.7527,28.711 z m -70.1823,-113.021 q 0,77.9298 69.7266,77.9298 69.2709,0 69.2709,-77.9298 v -21.875 q 0,-77.474 -69.2709,-77.474 -69.7266,0 -69.7266,77.474 z m 234.245,108.9194 v -238.8023 h 39.1927 v 33.2683 q 24.1537,-36.4584 76.1068,-36.4584 10.4818,0 19.1407,1.3672 v 37.8256 q -13.2162,-3.6459 -26.4324,-4.1016 -30.5338,0 -49.6745,18.6849 -18.6849,18.2292 -18.6849,50.586 v 137.6303 z m 278.9063,4.1016 q -51.0417,0 -80.6641,-28.711 -29.1667,-28.711 -29.1667,-83.3985 v -23.6979 q 0,-54.6876 29.1667,-83.3985 29.6224,-28.711 80.6641,-28.711 51.4975,0 79.7527,29.1667 28.711,29.1667 28.711,82.9428 v 23.6979 q 0,54.6875 -28.711,83.3985 -28.2552,28.711 -79.7527,28.711 z m -70.1823,-113.021 q 0,77.9298 69.7266,77.9298 69.2709,0 69.2709,-77.9298 v -21.875 q 0,-77.474 -69.2709,-77.474 -69.7266,0 -69.7266,77.474 z m 335.8727,112.1095 q -49.6745,0 -75.6511,-25.5209 -25.9766,-25.5208 -25.9766,-72.4609 v -144.0106 h 39.6485 v 139.909 q 0,66.5365 62.4349,66.5365 32.3568,0 47.3959,-16.4063 15.0391,-16.862 15.0391,-50.1302 v -139.909 h 39.6484 v 144.0106 q 0,46.9401 -26.4323,72.4609 -25.9766,25.5209 -76.1068,25.5209 z m 261.5888,-3.1901 q -71.5496,0 -71.5496,-68.8152 V 1302.468 h -41.9271 v -29.6225 h 41.9271 v -51.9531 l 39.6485,-16.4063 v 68.3594 h 63.3464 v 29.6225 h -63.3464 v 138.086 q 0,20.0521 9.1146,28.2552 9.1146,8.2032 29.1667,8.2032 h 20.0521 v 34.6354 z m 185.9375,4.1016 q -52.4089,0 -82.0313,-29.1667 -29.1667,-29.1667 -29.1667,-85.2214 v -19.1407 q 0,-55.599 28.2552,-84.7657 28.2553,-29.6224 77.9298,-29.6224 49.2188,0 77.0183,27.3438 27.7995,27.3438 27.7995,78.8412 v 27.7995 h -171.3543 v 1.8229 q 0,77.474 72.461,77.474 26.888,0 42.3828,-12.3047 15.4948,-12.7604 15.9505,-32.8125 v -1.3672 h 39.1928 v 1.8229 q -0.4557,22.7865 -13.2162,41.0157 -12.3047,17.7734 -34.1797,28.2552 -21.875,10.0261 -51.0417,10.0261 z m -71.5495,-143.5548 h 131.7058 v -4.1016 q 0,-32.3568 -17.3177,-48.7631 -16.862,-16.4062 -47.8516,-16.4062 -30.5339,0 -48.7631,17.3177 -17.7734,16.862 -17.7734,51.4974 z m 227.4089,139.4532 v -238.8023 h 39.1928 v 33.2683 q 24.1536,-36.4584 76.1068,-36.4584 10.4818,0 19.1406,1.3672 v 37.8256 q -13.2161,-3.6459 -26.4323,-4.1016 -30.5338,0 -49.6745,18.6849 -18.6849,18.2292 -18.6849,50.586 v 137.6303 z"
         id="path2" />
    </g>
  </g>
</svg>
